<?xml version="1.0" encoding="UTF-8"?>
<svg id="Layer_1" data-name="Layer 1" xmlns="http://www.w3.org/2000/svg" viewBox="0 0 360 360">
  <path d="M242.86,177.05h-99.38c-5.05,0-9.15,4.11-9.15,9.15v62.68c0,5.05,4.11,9.15,9.15,9.15h99.38c5.05,0,9.15-4.11,9.15-9.15v-62.68c0-5.05-4.11-9.15-9.15-9.15ZM167.67,231.73l14.06,14.1c1.08,1.08,2.97,1.12,4.16,0l34.76-34.79,25.51,25.5v12.33c0,1.75-1.37,3.19-3.1,3.29l-.02-.02h-98.29l22.92-20.42ZM218.57,204.8l-34.76,34.79-13.94-13.99c-1.11-1.08-2.87-1.13-4.01-.11l-25.61,22.83v-62.68c.27-1.55,1.62-2.72,3.24-2.72h99.38c1.81,0,3.29,1.48,3.29,3.29v42.05l-23.45-23.45c-.53-.53-1.29-.82-2.08-.83-.78,0-1.53.31-2.06.83Z"/>
  <path d="M162.66,186.65c-7.22,0-13.09,5.87-13.09,13.09s5.87,13.09,13.09,13.09,13.09-5.87,13.09-13.09-5.87-13.09-13.09-13.09ZM169.88,199.74c0,3.99-3.24,7.23-7.23,7.23s-7.23-3.24-7.23-7.23,3.24-7.23,7.23-7.23,7.23,3.24,7.23,7.23Z"/>
  <path d="M127.54,184.1c-1.06,0-1.93-.87-1.93-1.93v-48.61c0-1.06.87-1.93,1.93-1.93h77.77c1.06,0,1.93.87,1.93,1.93v36.7c0,1.62,1.31,2.93,2.93,2.93s2.93-1.31,2.93-2.93v-36.7c0-4.3-3.5-7.79-7.79-7.79h-77.77c-4.3,0-7.79,3.5-7.79,7.79v48.61c0,4.3,3.5,7.79,7.79,7.79,1.62,0,2.93-1.31,2.93-2.93s-1.31-2.93-2.93-2.93Z"/>
  <path d="M161.22,141.89c-1.92-1.21-4.36-1.27-6.37-.16-1.99,1.11-3.22,3.22-3.22,5.49v21.34c0,2.27,1.23,4.38,3.22,5.49.95.53,1.97.79,3.04.79,1.19,0,2.34-.33,3.33-.95l17.06-10.67c1.85-1.16,2.96-3.15,2.96-5.31s-1.11-4.17-2.96-5.31l-17.06-10.72ZM175.38,157.86c0,.16-.06.27-.2.35l-17.06,10.67c-.19.12-.35.05-.41.01-.14-.08-.21-.2-.21-.37v-21.34c0-.21.11-.31.18-.35.13-.06.2-.07.22-.07.05,0,.14.03.22.07l17.05,10.66c.19.12.22.28.22.36Z"/>
  <path d="M219.89,173.19c1.62,0,2.93-1.31,2.93-2.93v-36.7c0-1.62-1.31-2.93-2.93-2.93s-2.93,1.31-2.93,2.93v36.7c0,1.62,1.31,2.93,2.93,2.93Z"/>
  <path d="M229.61,173.19c1.62,0,2.93-1.31,2.93-2.93v-36.7c0-1.62-1.31-2.93-2.93-2.93s-2.93,1.31-2.93,2.93v36.7c0,1.62,1.31,2.93,2.93,2.93Z"/>
</svg>