<?xml version="1.0" encoding="UTF-8"?>
<svg id="Layer_1" data-name="Layer 1" xmlns="http://www.w3.org/2000/svg" viewBox="0 0 360 360">
  <path d="M88.84,272.56s.04,0,.06.01c.06,0,.12.02.18.03.11.01.21.02.32.02h0s100.64,0,100.64,0c.2,0,.41-.03.61-.07,4.51-.57,8.76-2.44,12.23-5.39,3.96-3.52,6.14-8.62,5.95-13.91-.06-.29-.06-.59,0-.87v-13.28c-1.85-.35-3.68-.85-5.47-1.48v14.76c.05.29.05.59,0,.88,0,11.67-11.37,13.62-13.28,13.87-3.94-.54-7.48-2.67-9.82-5.88-2.84-4.18-3.82-9.35-2.71-14.27.28-1.49-.7-2.92-2.19-3.2-.17-.03-.34-.05-.51-.05h0l-78.37.05v-118.18c0-.05,0-.11,0-.16-.3-3.95,1.03-7.86,3.68-10.81,2.13-2.31,5.13-3.61,8.27-3.58.23,0,.46-.04.68-.1.22.06.45.09.68.1h108.76c7.09.94,12.06,5.29,13.32,11.66,1.56,7.91-3.29,15.8-10.58,17.24-2.94.55-5.97-.01-8.52-1.57-2.48-1.44-4.23-3.87-4.83-6.67-.53-2.49-.05-5.09,1.33-7.22,1.2-1.7,3.05-2.83,5.12-3.09,3.2-.61,6.31,1.44,7,4.62.29,1.48,1.73,2.45,3.21,2.17,1.48-.29,2.45-1.73,2.17-3.21,0,0,0,0,0-.01-1.26-6.09-7.13-10.07-13.25-8.98-3.53.5-6.7,2.45-8.74,5.37-2.81,4.28-3.29,9.68-1.29,14.39-.04.18-.06.37-.06.55l-.02,31.66c1.79-.63,3.62-1.13,5.48-1.47l.02-24.1c.33.23.65.47,1,.68,2.77,1.69,5.95,2.58,9.2,2.59,1.09,0,2.18-.1,3.24-.31,10.38-2.04,17.06-12.66,14.9-23.67-1.72-8.72-8.68-14.88-18.18-16.06-.13-.01-.26-.02-.39-.02h-108.88c-.23,0-.46.04-.68.1-.22-.06-.45-.09-.68-.1-4.65-.02-9.09,1.91-12.26,5.31-3.67,4.02-5.54,9.37-5.17,14.8v118.1h-15.82c-1.31.01-2.44.94-2.69,2.23-1.39,7.17-.12,13.92,3.57,18.99,3.02,4.17,7.64,6.91,12.75,7.56ZM77.56,249.27l94.19-.07c-.5,5.41.95,10.83,4.09,15.27.71.96,1.5,1.85,2.36,2.67h-88.58c-3.66-.43-6.96-2.38-9.11-5.37-2.5-3.66-3.55-8.12-2.95-12.51Z"/>
  <path d="M110.31,146.65h79.42c1.51,0,2.74-1.23,2.74-2.74s-1.23-2.74-2.74-2.74h-79.42c-1.51,0-2.74,1.23-2.74,2.74s1.23,2.74,2.74,2.74Z"/>
  <path d="M110.31,161.71h79.42c1.51,0,2.74-1.23,2.74-2.74s-1.23-2.74-2.74-2.74h-79.42c-1.51,0-2.74,1.23-2.74,2.74s1.23,2.74,2.74,2.74Z"/>
  <path d="M107.57,189.09c0,1.51,1.23,2.74,2.74,2.74h70.12c.59-1.88,1.33-3.71,2.21-5.48h-72.33c-1.51,0-2.74,1.23-2.74,2.74Z"/>
  <path d="M192.46,174.1s0-.04,0-.07c0-1.51-1.23-2.74-2.74-2.74h-79.42c-1.51,0-2.74,1.23-2.74,2.74s1.23,2.74,2.74,2.74h79.2c.94-.94,1.92-1.84,2.95-2.67Z"/>
  <path d="M215.74,171.29c-17.39,0-31.49,14.1-31.49,31.49s14.1,31.49,31.49,31.49,31.49-14.1,31.49-31.49c-.02-17.39-14.11-31.47-31.49-31.49ZM215.74,228.8c-14.37,0-26.02-11.65-26.02-26.02s11.65-26.02,26.02-26.02,26.02,11.65,26.02,26.02h0c-.02,14.36-11.65,26-26.02,26.02Z"/>
  <path d="M227.5,191.26l-17.23,17.23-6.28-6.28c-1.07-1.07-2.81-1.06-3.87,0-1.06,1.07-1.06,2.8,0,3.87l8.22,8.22c1.07,1.07,2.8,1.07,3.87,0,0,0,0,0,0,0l19.17-19.17c1.07-1.07,1.06-2.81-.01-3.87-1.07-1.06-2.79-1.06-3.86,0h0Z"/>
</svg>