<?xml version="1.0" encoding="UTF-8"?>
<svg id="Layer_1" data-name="Layer 1" xmlns="http://www.w3.org/2000/svg" viewBox="0 0 360 360">
  <path d="M114.2,112.96h-19.64c-3.36,0-6.09,2.72-6.09,6.08v30.05c0,3.35,2.73,6.08,6.09,6.08h19.64c3.36,0,6.09-2.72,6.09-6.08v-30.05c0-3.35-2.73-6.08-6.09-6.08ZM115.54,149.08c0,.72-.61,1.32-1.33,1.32h-19.64c-.72,0-1.33-.6-1.33-1.32v-30.05c0-.72.61-1.32,1.33-1.32h19.64c.72,0,1.33.6,1.33,1.32v30.05ZM114.2,237h-19.64c-3.36,0-6.09,2.72-6.09,6.08v30.05c0,3.35,2.73,6.08,6.09,6.08h19.64c3.36,0,6.09-2.72,6.09-6.08v-30.05c0-3.35-2.73-6.08-6.09-6.08ZM115.54,273.13c0,.72-.61,1.32-1.33,1.32h-19.64c-.72,0-1.33-.6-1.33-1.32v-30.05c0-.72.61-1.32,1.33-1.32h19.64c.72,0,1.33.6,1.33,1.32v30.05ZM114.2,174.97h-19.64c-3.36,0-6.09,2.73-6.09,6.09v30.05c0,3.36,2.73,6.09,6.09,6.09h19.64c3.36,0,6.09-2.73,6.09-6.09v-30.05c0-3.36-2.73-6.09-6.09-6.09ZM115.54,211.1c0,.73-.59,1.33-1.33,1.33h-19.64c-.73,0-1.33-.59-1.33-1.33v-30.05c0-.73.59-1.33,1.33-1.33h19.64c.73,0,1.33.59,1.33,1.33v30.05ZM182.82,171.51c0,1.32-1.06,2.38-2.38,2.38h-15.39c-1.32,0-2.38-1.06-2.38-2.38s1.06-2.38,2.38-2.38h15.39c1.32,0,2.38,1.06,2.38,2.38ZM182.82,161.69c0,1.32-1.06,2.38-2.38,2.38h-6.01c-1.32,0-2.38-1.06-2.38-2.38s1.06-2.38,2.38-2.38h6.01c1.32,0,2.38,1.06,2.38,2.38ZM162.67,161.69c0-1.32,1.06-2.38,2.38-2.38h2.43c1.32,0,2.38,1.06,2.38,2.38s-1.06,2.38-2.38,2.38h-2.43c-1.32,0-2.38-1.06-2.38-2.38ZM182.82,181.34c0,1.32-1.06,2.38-2.38,2.38h-15.39c-1.32,0-2.38-1.06-2.38-2.38s1.06-2.38,2.38-2.38h15.39c1.32,0,2.38,1.06,2.38,2.38ZM182.82,191.16c0,1.32-1.06,2.38-2.38,2.38h-6.01c-1.32,0-2.38-1.06-2.38-2.38s1.06-2.38,2.38-2.38h6.01c1.32,0,2.38,1.06,2.38,2.38ZM162.67,191.16c0-1.32,1.06-2.38,2.38-2.38h2.43c1.32,0,2.38,1.06,2.38,2.38s-1.06,2.38-2.38,2.38h-2.43c-1.32,0-2.38-1.06-2.38-2.38ZM182.82,201c0,1.32-1.06,2.38-2.38,2.38h-15.39c-1.32,0-2.38-1.06-2.38-2.38s1.06-2.38,2.38-2.38h15.39c1.32,0,2.38,1.06,2.38,2.38ZM182.82,210.82c0,1.32-1.06,2.38-2.38,2.38h-6.01c-1.32,0-2.38-1.06-2.38-2.38s1.06-2.38,2.38-2.38h6.01c1.32,0,2.38,1.06,2.38,2.38ZM162.67,210.82c0-1.32,1.06-2.38,2.38-2.38h2.43c1.32,0,2.38,1.06,2.38,2.38s-1.06,2.38-2.38,2.38h-2.43c-1.32,0-2.38-1.06-2.38-2.38ZM182.82,220.64c0,1.32-1.06,2.38-2.38,2.38h-15.39c-1.32,0-2.38-1.06-2.38-2.38s1.06-2.38,2.38-2.38h15.39c1.32,0,2.38,1.06,2.38,2.38ZM182.82,230.47c0,1.32-1.06,2.38-2.38,2.38h-6.01c-1.32,0-2.38-1.06-2.38-2.38s1.06-2.38,2.38-2.38h6.01c1.32,0,2.38,1.06,2.38,2.38ZM169.86,230.47c0,1.32-1.06,2.38-2.38,2.38h-2.43c-1.32,0-2.38-1.06-2.38-2.38s1.06-2.38,2.38-2.38h2.43c1.32,0,2.38,1.06,2.38,2.38ZM250.93,112.95h-19.65c-3.36,0-6.09,2.72-6.09,6.08v30.05c0,3.35,2.73,6.08,6.09,6.08h19.65c3.35,0,6.08-2.72,6.08-6.08v-30.05c0-3.35-2.72-6.08-6.08-6.08ZM252.26,149.08c0,.72-.6,1.32-1.32,1.32h-19.65c-.72,0-1.33-.6-1.33-1.32v-30.05c0-.72.61-1.32,1.33-1.32h19.65c.72,0,1.32.6,1.32,1.32v30.05ZM250.93,237h-19.65c-3.36,0-6.09,2.72-6.09,6.08v30.05c0,3.35,2.73,6.08,6.09,6.08h19.65c3.35,0,6.08-2.72,6.08-6.08v-30.05c0-3.35-2.72-6.08-6.08-6.08ZM252.26,273.13c0,.72-.6,1.32-1.32,1.32h-19.65c-.72,0-1.33-.6-1.33-1.32v-30.05c0-.72.61-1.32,1.33-1.32h19.65c.72,0,1.32.6,1.32,1.32v30.05ZM250.93,174.97h-19.65c-3.36,0-6.09,2.73-6.09,6.09v30.05c0,3.36,2.73,6.09,6.09,6.09h19.65c3.35,0,6.08-2.73,6.08-6.09v-30.05c0-3.36-2.72-6.09-6.08-6.09ZM252.26,211.09c0,.72-.6,1.33-1.32,1.33h-19.65c-.72,0-1.33-.61-1.33-1.33v-30.05c0-.72.61-1.33,1.33-1.33h19.65c.72,0,1.32.61,1.32,1.33v30.05ZM212.71,140.12c.47.53,1.13.81,1.79.81.56,0,1.12-.2,1.57-.59l5.09-4.49c.51-.45.81-1.1.81-1.79s-.3-1.33-.81-1.79l-5.09-4.48c-.99-.86-2.49-.77-3.36.21s-.77,2.49.21,3.36l.37.32h-11.13c-1.32,0-2.38,1.06-2.38,2.38v59.64h-7.57v-38.04c0-3.88-3.17-7.05-7.06-7.05h-24.8c-3.88,0-7.05,3.16-7.05,7.05v38.04h-7.58v-59.64c0-1.32-1.06-2.38-2.38-2.38h-11.13l.37-.32c.99-.86,1.08-2.37.21-3.36s-2.37-1.08-3.36-.21l-5.09,4.49c-.51.45-.81,1.1-.81,1.79s.3,1.33.81,1.79l5.09,4.49c.45.4,1.01.59,1.57.59.66,0,1.32-.27,1.79-.81.86-.99.77-2.49-.21-3.36l-.37-.32h8.76v57.26h-8.75l.35-.31c.99-.86,1.09-2.37.21-3.36-.86-.99-2.37-1.09-3.36-.21l-5.09,4.48c-.51.45-.81,1.1-.81,1.79s.3,1.33.81,1.79l5.09,4.49c.45.4,1.01.59,1.57.59.66,0,1.32-.27,1.79-.81.86-.99.77-2.49-.21-3.36l-.37-.32h8.76v57.27h-8.76l.37-.32c.99-.86,1.08-2.37.21-3.36s-2.37-1.08-3.36-.21l-5.09,4.49c-.51.45-.81,1.1-.81,1.79s.3,1.33.81,1.79l5.09,4.48c.45.4,1.01.59,1.57.59.66,0,1.32-.27,1.79-.81.86-.99.77-2.49-.21-3.36l-.37-.32h11.13c1.32,0,2.38-1.06,2.38-2.38v-59.64h7.58v38.04c0,3.88,3.16,7.05,7.05,7.05h24.8c3.89,0,7.06-3.16,7.06-7.05v-38.04h7.57v59.64c0,1.32,1.06,2.38,2.38,2.38h11.13l-.37.32c-.99.86-1.08,2.37-.21,3.36.47.53,1.13.81,1.79.81.56,0,1.12-.2,1.57-.59l5.09-4.48c.51-.45.81-1.1.81-1.79s-.3-1.33-.81-1.79l-5.09-4.49c-.99-.86-2.49-.77-3.36.21-.86.99-.77,2.49.21,3.36l.37.32h-8.76v-57.27h8.76l-.37.32c-.99.86-1.08,2.37-.21,3.36.47.53,1.13.81,1.79.81.56,0,1.12-.2,1.57-.59l5.09-4.49c.51-.45.81-1.1.81-1.79s-.3-1.33-.81-1.79l-5.09-4.48c-.99-.86-2.49-.77-3.36.21s-.77,2.49.21,3.36l.35.31h-8.75v-57.26h8.76l-.37.32c-.99.86-1.08,2.37-.21,3.36h.02ZM187.44,236.5c0,1.27-1.03,2.3-2.3,2.3h-24.8c-1.27,0-2.3-1.03-2.3-2.3v-80.84c0-1.27,1.04-2.3,2.3-2.3h24.8c1.27,0,2.3,1.03,2.3,2.3v80.84h0Z"/>
</svg>