<?xml version="1.0" encoding="UTF-8"?>
<svg id="Layer_1" data-name="Layer 1" xmlns="http://www.w3.org/2000/svg" viewBox="0 0 360 360">
  <path d="M206.66,188.8c-.9-.6-2.03-.66-2.99-.12-.96.54-1.55,1.55-1.55,2.63v8.67h-26.18v-32.22h26.18v8.73c0,1.08.6,2.03,1.55,2.57s2.09.54,2.99-.06l31.21-19.49c.84-.54,1.37-1.49,1.37-2.51s-.54-1.97-1.37-2.57l-31.21-19.43c-.9-.6-2.03-.66-2.99-.12s-1.55,1.55-1.55,2.63v8.67h-26.18v-13.75c0-6.28-5.08-11.42-11.36-11.42s-11.36,5.14-11.36,11.42v41.31h-23.02v-8.67c0-1.14-.6-2.09-1.55-2.63-.96-.54-2.09-.48-3.05.06l-31.15,19.49c-1.73,1.08-1.73,4.01,0,5.08l31.15,19.49c.96.54,2.09.6,3.05.06s1.55-1.55,1.55-2.63v-8.67h23.02v69.88h-24.03c-1.67,0-2.99,1.32-2.99,2.99s1.32,2.99,2.99,2.99h70.78c1.67,0,2.99-1.32,2.99-2.99s-1.32-2.99-2.99-2.99h-24.03v-43.64h26.18v8.73c0,1.08.6,2.03,1.55,2.57s2.09.54,2.99-.06l31.21-19.49c.84-.54,1.37-1.49,1.37-2.51s-.54-1.97-1.37-2.57l-31.21-19.43ZM175.93,152.15h29.17c1.67,0,2.99-1.32,2.99-2.99v-6.28l22.54,14.11-22.54,14.05v-6.28c0-1.67-1.32-2.99-2.99-2.99h-29.17s0-9.62,0-9.62ZM153.21,189.33h-26c-1.67,0-2.99,1.32-2.99,2.99v6.28l-22.54-14.11,22.54-14.05v6.28c0,1.67,1.32,2.99,2.99,2.99h26v9.62ZM169.95,146.17v117.95h-10.76v-131.7c0-3.05,2.39-5.44,5.38-5.44s5.38,2.39,5.38,5.44v13.75ZM208.09,224.84v-6.28c0-1.67-1.32-2.99-2.99-2.99h-29.17v-9.62h29.17c1.67,0,2.99-1.32,2.99-2.99v-6.28l22.54,14.11-22.54,14.05Z"/>
</svg>