<?xml version="1.0" encoding="UTF-8"?>
<svg id="Layer_1" data-name="Layer 1" xmlns="http://www.w3.org/2000/svg" viewBox="0 0 360 360">
  <defs>
    <style>
      .cls-1 {
        fill-rule: evenodd;
      }
    </style>
  </defs>
  <path class="cls-1" d="M138.71,221.89c-1.5,0-2.72,1.24-2.72,2.72s1.21,2.72,2.72,2.72h52.08c1.5,0,2.72-1.21,2.72-2.72s-1.22-2.72-2.72-2.72h-52.08ZM230.83,265.6h-40.54c-5.86,0-10.63,4.76-10.63,10.62v5.26h-12.21v-6.11c0-12.13,9.86-21.97,21.98-21.97h41.39v12.2h0ZM139.19,265.6h-40.54v-12.2h41.39c12.12,0,21.98,9.84,21.98,21.97v6.11h-12.21v-5.26c0-5.86-4.77-10.62-10.63-10.62h0ZM233.55,247.96h-44.11c-8.73,0-16.51,4.12-21.54,10.48,2.05-10,10.92-17.58,21.54-17.58h44.11c1.5,0,2.72-1.21,2.72-2.7s-1.21-2.72-2.72-2.72h-44.11c-10.86,0-20.26,6.34-24.7,15.52-4.44-9.18-13.84-15.52-24.7-15.52h-44.11c-1.5,0-2.72,1.21-2.72,2.72s1.22,2.7,2.72,2.7h44.11c10.61,0,19.49,7.58,21.54,17.58-5.02-6.36-12.81-10.48-21.54-10.48h-44.11c-1.5,0-2.72,1.21-2.72,2.72v17.65c0,1.49,1.22,2.7,2.72,2.7h43.25c2.86,0,5.19,2.33,5.19,5.2v7.97c0,1.51,1.21,2.72,2.72,2.72h35.29c1.5,0,2.71-1.21,2.71-2.72v-7.97c0-2.86,2.33-5.2,5.19-5.2h43.25c1.5,0,2.72-1.21,2.72-2.7v-17.65c0-1.51-1.21-2.72-2.72-2.72h0ZM125.12,146.76l12.72,31.02h-25.44l12.72-31.02h0ZM125.12,194.56c-6.83,0-12.53-4.9-13.8-11.35h27.58c-1.27,6.45-6.97,11.35-13.79,11.35h0ZM157.91,119.89c0-3.78,3.06-6.84,6.83-6.84s6.84,3.07,6.84,6.84-3.07,6.82-6.84,6.82-6.83-3.07-6.83-6.82h0ZM217.1,177.78h-25.44l12.72-31.02,12.72,31.02h0ZM204.37,194.56c-6.82,0-12.53-4.9-13.79-11.35h27.59c-1.27,6.45-6.97,11.35-13.79,11.35h0ZM125.12,199.98c10.74,0,19.49-8.74,19.49-19.5,0-.6-.17-.82-.21-1.03,0,0,0-.02,0-.02l-15.22-37.1h32.86v68.37h-12.85c-1.5,0-2.72,1.21-2.72,2.72s1.22,2.72,2.72,2.72h31.14c1.5,0,2.72-1.24,2.72-2.72s-1.22-2.72-2.72-2.72h-12.85v-68.37h32.86l-15.22,37.1s0,.02,0,.02v.02s0,0,0,0c-.13.3-.21.66-.21,1.01,0,10.76,8.75,19.5,19.49,19.5s19.49-8.74,19.49-19.5c0-.6-.2-.95-.21-1.03,0,0,0-.02-.01-.02l-16.76-40.83c-.42-1.03-1.41-1.69-2.52-1.69h-36.91v-5.06c5.46-1.24,9.56-6.13,9.56-11.95,0-6.78-5.51-12.27-12.27-12.27s-12.27,5.49-12.27,12.27c0,5.81,4.09,10.71,9.55,11.95v5.06h-36.91c-1.11,0-2.1.66-2.51,1.69l-16.76,40.83s0,.02,0,.02c-.11.38-.21.52-.21,1.03,0,10.76,8.74,19.5,19.49,19.5Z"/>
</svg>