<?xml version="1.0" encoding="UTF-8"?>
<svg id="Layer_1" data-name="Layer 1" xmlns="http://www.w3.org/2000/svg" viewBox="0 0 360 360">
  <path d="M246.87,192.34l-21.82-26.44v-7.92c0-3.48-2.84-6.3-6.32-6.31h-.67v-9.25c0-3.22-2.63-5.85-5.85-5.85h-1.13v-9.7c0-2.98-2.43-5.4-5.4-5.4h-44.89l-5.9-7.26c-1.03-1.28-2.54-1.98-4.2-1.99h-19.49c-2.97,0-5.39,2.42-5.39,5.39v8.08h-1.14c-3.23,0-5.85,2.64-5.85,5.86v7.62h-.68c-3.48,0-6.31,2.84-6.32,6.32v20.42l-21.8,26.44c-.41.5-.63,1.12-.63,1.77v83.08c0,1.53,1.25,2.78,2.78,2.78h152.55c1.53,0,2.78-1.25,2.78-2.78v-83.08c0-.64-.22-1.27-.62-1.77ZM98.06,191.32l13.76-16.69v16.69h-13.76ZM130.93,145l9.1,11.2c.53.65,1.31,1.02,2.15,1.02h76.56c.42,0,.75.33.76.75v33.35h-102.11v-45.84c0-.41.34-.75.76-.75h12.22c.22-.01.42.08.56.27ZM150.62,117.76l6.69,8.23c.53.65,1.31,1.02,2.15,1.02h46.06v9.54h-52.98l-7.09-8.72c-1.11-1.38-2.78-2.14-4.54-2.15h-9.54v-7.91h19.25ZM141.14,131.35l7.91,9.75c.53.65,1.32,1.03,2.16,1.03h61c.16,0,.3.14.3.29v9.25h-69l-8.25-10.16c-1.2-1.51-3.03-2.38-4.91-2.35h-5.96v-7.62c0-.17.13-.3.29-.3h16.26c.08,0,.15.03.2.11ZM225.05,191.32v-16.68l13.77,16.68h-13.77ZM241.94,196.88v77.52H94.95v-77.52h146.99Z"/>
  <path d="M148.33,225.4h40.23c2.3,0,4.46-.9,6.09-2.52,1.63-1.63,2.53-3.79,2.53-6.09,0-4.75-3.86-8.62-8.62-8.62h-40.24c-4.75,0-8.62,3.86-8.62,8.62,0,2.3.89,4.47,2.52,6.1,1.63,1.63,3.79,2.53,6.1,2.53ZM188.55,219.84h-40.23c-1.69,0-3.06-1.37-3.06-3.06s1.37-3.06,3.06-3.06h40.23c1.69,0,3.06,1.37,3.06,3.06s-1.37,3.06-3.06,3.06ZM188.55,208.66h0s0,0,0,0Z"/>
</svg>