<?xml version="1.0" encoding="UTF-8"?>
<svg id="Layer_1" data-name="Layer 1" xmlns="http://www.w3.org/2000/svg" viewBox="0 0 360 360">
  <path d="M202.11,202.61v25.72h7.24v-25.72h-7.24ZM205.73,239.56c-1.99,0-3.62,1.63-3.62,3.62s1.63,3.62,3.62,3.62,3.62-1.62,3.62-3.62-1.62-3.62-3.62-3.62ZM100.49,156.42v7.24h44.19v-7.24h-44.19ZM100.49,137.94v7.24h62.67v-7.24h-62.67ZM186.26,119.69c-.91-8.67-8.7-14.99-17.38-14.09h-.1s-74.01,0-74.01,0c-1.09-.11-2.2-.11-3.29,0-4.2.44-7.98,2.49-10.64,5.78-2.66,3.28-3.89,7.4-3.45,11.6v.11s.01,55.43.01,55.43c0,10.79,5.76,16.99,16.22,17.45l1.22.05-4.6,18.45h10.52l23.1-18.48h16.2v-7.24h-18.74l-21.49,17.2,4.3-17.2h-9.26c-7.17,0-10.23-3.06-10.23-10.23v-55.43c0-7.18,3.06-10.24,10.23-10.24h73.91c7.18,0,10.24,3.06,10.24,10.24v45.19h7.24v-45.3c.12-1.09.12-2.2,0-3.29ZM202.11,202.61v25.72h7.24v-25.72h-7.24ZM205.73,239.56c-1.99,0-3.62,1.63-3.62,3.62s1.63,3.62,3.62,3.62,3.62-1.62,3.62-3.62-1.62-3.62-3.62-3.62ZM205.73,239.56c-1.99,0-3.62,1.63-3.62,3.62s1.63,3.62,3.62,3.62,3.62-1.62,3.62-3.62-1.62-3.62-3.62-3.62ZM202.11,202.61v25.72h7.24v-25.72h-7.24ZM202.11,202.61v25.72h7.24v-25.72h-7.24ZM205.73,239.56c-1.99,0-3.62,1.63-3.62,3.62s1.63,3.62,3.62,3.62,3.62-1.62,3.62-3.62-1.62-3.62-3.62-3.62ZM205.73,239.56c-1.99,0-3.62,1.63-3.62,3.62s1.63,3.62,3.62,3.62,3.62-1.62,3.62-3.62-1.62-3.62-3.62-3.62ZM202.11,202.61v25.72h7.24v-25.72h-7.24ZM202.11,202.61v25.72h7.24v-25.72h-7.24ZM205.73,239.56c-1.99,0-3.62,1.63-3.62,3.62s1.63,3.62,3.62,3.62,3.62-1.62,3.62-3.62-1.62-3.62-3.62-3.62ZM205.73,239.56c-1.99,0-3.62,1.63-3.62,3.62s1.63,3.62,3.62,3.62,3.62-1.62,3.62-3.62-1.62-3.62-3.62-3.62ZM202.11,202.61v25.72h7.24v-25.72h-7.24ZM202.11,202.61v25.72h7.24v-25.72h-7.24ZM205.73,239.56c-1.99,0-3.62,1.63-3.62,3.62s1.63,3.62,3.62,3.62,3.62-1.62,3.62-3.62-1.62-3.62-3.62-3.62ZM256.72,185.28c-2.66-3.28-6.44-5.33-10.64-5.77-1.09-.11-2.2-.11-3.29,0h-.11s-74,0-74,0c-8.69-.91-16.47,5.41-17.38,14.09-.12,1.09-.12,2.2,0,3.29v55.64c-.44,4.2.78,8.32,3.44,11.6,2.66,3.28,6.44,5.33,10.64,5.77,1.1.12,2.2.12,3.3,0h45.02l23.09,18.47h10.53l-4.6-18.44,1.22-.06c10.46-.46,16.22-6.66,16.22-17.45v-55.53c.45-4.2-.78-8.33-3.44-11.61ZM252.92,252.42c0,7.18-3.06,10.24-10.24,10.24h-9.25l4.3,17.19-21.49-17.19h-47.46c-7.18,0-10.24-3.06-10.24-10.24v-55.43c0-7.17,3.06-10.24,10.24-10.24h73.9c7.18,0,10.24,3.07,10.24,10.24v55.43ZM202.11,228.33h7.24v-25.72h-7.24v25.72ZM205.73,239.56c-1.99,0-3.62,1.63-3.62,3.62s1.63,3.62,3.62,3.62,3.62-1.62,3.62-3.62-1.62-3.62-3.62-3.62ZM205.73,239.56c-1.99,0-3.62,1.63-3.62,3.62s1.63,3.62,3.62,3.62,3.62-1.62,3.62-3.62-1.62-3.62-3.62-3.62ZM202.11,202.61v25.72h7.24v-25.72h-7.24ZM202.11,202.61v25.72h7.24v-25.72h-7.24ZM205.73,239.56c-1.99,0-3.62,1.63-3.62,3.62s1.63,3.62,3.62,3.62,3.62-1.62,3.62-3.62-1.62-3.62-3.62-3.62ZM205.73,239.56c-1.99,0-3.62,1.63-3.62,3.62s1.63,3.62,3.62,3.62,3.62-1.62,3.62-3.62-1.62-3.62-3.62-3.62ZM202.11,202.61v25.72h7.24v-25.72h-7.24ZM202.11,202.61v25.72h7.24v-25.72h-7.24ZM205.73,239.56c-1.99,0-3.62,1.63-3.62,3.62s1.63,3.62,3.62,3.62,3.62-1.62,3.62-3.62-1.62-3.62-3.62-3.62ZM205.73,239.56c-1.99,0-3.62,1.63-3.62,3.62s1.63,3.62,3.62,3.62,3.62-1.62,3.62-3.62-1.62-3.62-3.62-3.62ZM202.11,202.61v25.72h7.24v-25.72h-7.24ZM202.11,202.61v25.72h7.24v-25.72h-7.24ZM205.73,239.56c-1.99,0-3.62,1.63-3.62,3.62s1.63,3.62,3.62,3.62,3.62-1.62,3.62-3.62-1.62-3.62-3.62-3.62Z"/>
</svg>