<?xml version="1.0" encoding="UTF-8"?>
<svg id="Layer_1" data-name="Layer 1" xmlns="http://www.w3.org/2000/svg" viewBox="0 0 360 360">
  <path d="M255.42,166.83c-.21-1.73-1.66-3.04-3.39-3.09h-.62c-1.99,0-7.31.14-13.86,1.52-1.15.24-2.11,1.05-2.55,2.14l-2.21,5.57-4.48-3.28c-1.02-.75-2.37-.89-3.52-.37-.36.16-.69.36-1.04.53v-17.55c0-17.26-14.04-31.29-31.3-31.29h-95.34c-.1,0-.18.05-.28.06-1.81.01-3.62.17-5.43.53-10.5,2.1-19.04,10.57-21.26,21.06-2.07,9.81,1.06,19.65,8.36,26.32,3.09,2.81,6.94,4.23,10.75,4.23.38,0,.75-.07,1.13-.1.02,0,.03,0,.05,0h27.25v96.28c0,1.95,1.57,3.52,3.52,3.52h99.03c1.95,0,3.52-1.57,3.52-3.52v-47.62c5.94-1.89,12.19-4.85,17.44-9.53.73-.65,1.15-1.58,1.18-2.56l.14-7.29,2.56.96c1.65.61,3.5-.09,4.33-1.64,8.28-15.46,6.12-34.08,6.02-34.86ZM117.68,166.06h-15.36c2.29-3.05,3.83-6.63,4.41-10.4h10.95v10.4ZM117.68,148.6h0s-14.19.01-14.19.01c-1.95,0-3.52,1.57-3.52,3.52,0,4.5-1.9,8.83-5.22,11.87-3.18,2.93-8.13,2.82-11.5-.25-5.44-4.96-7.77-12.31-6.22-19.66,1.64-7.78,7.98-14.05,15.76-15.61,1.42-.29,2.85-.43,4.26-.43,4.78,0,9.4,1.61,13.11,4.65,4.77,3.91,7.52,9.68,7.53,15.84,0,.02-.01.03-.01.05ZM216.71,265.85h-91.99v-117.07c0-.06.01-.11.01-.18,0-7.91-3.38-15.32-9.27-20.56h76.99c13.38,0,24.26,10.88,24.26,24.25v21.65c-2.25,1.61-4.29,3.39-6.05,5.33-2.29,2.5-4.29,5.43-5.95,8.71-.48.95-.51,2.06-.07,3.03l2.74,6.11-5.7,3.16c-.93.52-1.57,1.42-1.76,2.46-1.35,7.64-1.16,14.29-.95,17.36-1.15,1.53-2.32,3.22-3.55,5.12-1.51-.43-3.06-.74-4.71-.74-9.49,0-17.22,7.72-17.22,17.22s7.72,17.22,17.22,17.22,17.21-7.72,17.21-17.22c0-5.31-2.47-10.01-6.26-13.17.83-1.27,1.64-2.44,2.43-3.52,2.38-.05,7.05-.32,12.62-1.45v42.29ZM200.89,241.7c0,5.61-4.56,10.18-10.17,10.18s-10.18-4.56-10.18-10.18,4.56-10.18,10.18-10.18,10.17,4.56,10.17,10.18ZM244.53,195.62l-4.22-1.57c-1.07-.4-2.26-.25-3.21.39-.95.64-1.52,1.7-1.54,2.84l-.2,10.66c-7.76,6.29-18,8.62-24.9,9.5,3.27-3.31,6.6-5.83,9.83-7.4,1.75-.85,2.48-2.95,1.63-4.7s-2.95-2.47-4.7-1.63c-3.75,1.82-7.56,4.63-11.24,8.26.1-1.95.28-4.09.61-6.37l7.03-3.9c1.6-.89,2.25-2.85,1.5-4.52l-3.35-7.48c1.2-2.12,2.56-4.02,4.09-5.68,2.63-2.9,5.99-5.38,9.99-7.41l6.46,4.73c.88.65,2.01.84,3.05.54,1.05-.3,1.9-1.07,2.3-2.08l3.18-8.01c3.12-.56,5.86-.81,7.81-.92.18,5.09-.07,15.43-4.12,24.76Z"/>
  <path d="M144.48,154.28h52.48c1.95,0,3.52-1.57,3.52-3.52s-1.57-3.52-3.52-3.52h-52.48c-1.95,0-3.52,1.57-3.52,3.52s1.57,3.52,3.52,3.52Z"/>
  <path d="M144.48,175.3h52.48c1.95,0,3.52-1.57,3.52-3.52s-1.57-3.52-3.52-3.52h-52.48c-1.95,0-3.52,1.57-3.52,3.52s1.57,3.52,3.52,3.52Z"/>
  <path d="M200.47,192.81c0-1.95-1.57-3.52-3.52-3.52h-52.48c-1.95,0-3.52,1.57-3.52,3.52s1.57,3.52,3.52,3.52h52.48c1.95,0,3.52-1.57,3.52-3.52Z"/>
</svg>