<?xml version="1.0" encoding="UTF-8"?>
<svg id="Layer_1" data-name="Layer 1" xmlns="http://www.w3.org/2000/svg" viewBox="0 0 360 360">
  <path d="M237.87,220.53l-50.94-88.22c-2.76-4.77-7.9-7.75-13.44-7.75s-10.68,2.98-13.44,7.75l-50.94,88.22c-2.76,4.77-2.76,10.73,0,15.5,2.76,4.77,7.9,7.75,13.44,7.75h101.87c5.54,0,10.68-2.98,13.44-7.75s2.76-10.73,0-15.5ZM233.61,233.6c-1.89,3.27-5.39,5.29-9.18,5.29h-101.87c-3.76,0-7.28-2.02-9.18-5.29s-1.89-7.33,0-10.58l50.94-88.24c1.89-3.27,5.39-5.29,9.18-5.29s7.28,2.02,9.18,5.29l50.94,88.22c1.89,3.27,1.89,7.33,0,10.58v.02Z"/>
  <path d="M178.42,137.24c-1.01-1.75-2.88-2.83-4.92-2.83s-3.89,1.08-4.9,2.83l-50.94,88.22c-1.01,1.75-1.01,3.91,0,5.66s2.88,2.83,4.9,2.83h101.87c2.02,0,3.89-1.08,4.92-2.83,1.01-1.75,1.01-3.91,0-5.66l-50.94-88.22ZM225.08,228.68c-.12.22-.39.37-.64.37h-101.87c-.25,0-.52-.15-.64-.37s-.12-.54,0-.74l50.94-88.24c.12-.22.39-.37.64-.37s.52.17.64.37l50.94,88.22c.12.22.12.54,0,.74v.02Z"/>
  <path d="M173.5,159.31c-4.06,0-7.38,3.32-7.38,7.38v27.07c0,4.06,3.32,7.38,7.38,7.38s7.38-3.32,7.38-7.38v-27.07c0-4.06-3.32-7.38-7.38-7.38ZM175.96,193.76c0,1.35-1.11,2.46-2.46,2.46s-2.46-1.11-2.46-2.46v-27.07c0-1.35,1.11-2.46,2.46-2.46s2.46,1.11,2.46,2.46v27.07Z"/>
  <path d="M173.5,206.06c-4.06,0-7.38,3.32-7.38,7.38s3.32,7.38,7.38,7.38,7.38-3.32,7.38-7.38-3.32-7.38-7.38-7.38ZM173.5,215.91c-1.35,0-2.46-1.11-2.46-2.46s1.11-2.46,2.46-2.46,2.46,1.11,2.46,2.46-1.11,2.46-2.46,2.46Z"/>
  <path d="M131.74,149.17c-2.68,3.35-3.89,7.51-3.42,11.76.15,1.25,1.21,2.19,2.44,2.19h.27c1.35-.15,2.31-1.38,2.17-2.71-.66-6.08,3.72-11.57,9.79-12.23,1.35-.15,2.31-1.38,2.17-2.71-.15-1.35-1.38-2.34-2.71-2.17-4.23.47-8.05,2.56-10.73,5.91l.02-.05Z"/>
  <path d="M116.09,164.75h.27c1.35-.15,2.31-1.38,2.17-2.71-.76-6.87,1.18-13.61,5.51-19,4.31-5.39,10.46-8.78,17.32-9.55,1.35-.15,2.31-1.38,2.17-2.71-.15-1.35-1.38-2.34-2.71-2.17-16.86,1.87-29.04,17.1-27.17,33.96.15,1.25,1.21,2.19,2.44,2.19v-.02Z"/>
  <path d="M204.01,148.16c6.08.66,10.46,6.15,9.79,12.23-.15,1.35.81,2.56,2.17,2.71h.27c1.23,0,2.31-.94,2.44-2.19.47-4.23-.74-8.42-3.42-11.76s-6.47-5.44-10.73-5.91c-1.35-.15-2.56.81-2.71,2.17s.81,2.56,2.17,2.71l.02.05Z"/>
  <path d="M205.64,133.47c6.87.76,13.02,4.16,17.32,9.55,4.31,5.39,6.27,12.13,5.51,19-.15,1.35.81,2.56,2.17,2.71h.27c1.23,0,2.31-.94,2.44-2.19,1.87-16.86-10.31-32.09-27.17-33.96-1.33-.15-2.56.81-2.71,2.17-.15,1.35.81,2.56,2.17,2.71v.02Z"/>
</svg>