<?xml version="1.0" encoding="UTF-8"?>
<svg id="Layer_1" data-name="Layer 1" xmlns="http://www.w3.org/2000/svg" viewBox="0 0 360 360">
  <path d="M260.07,161.24l-12.19-11.5,12.06-12.87c.67-.72.85-1.77.46-2.67-.4-.9-1.31-1.5-2.27-1.47l-33.77.28-.05-6.53c-.01-.66-.27-1.27-.74-1.73-.47-.46-1.11-.71-1.74-.71l-39.64.33-.04-5.1c-.01-.65-.27-1.27-.74-1.73-.47-.46-1.07-.71-1.74-.7-.66,0-1.27.26-1.73.73-.46.47-.71,1.09-.71,1.74l.49,58.49-.65.25c-.59.22-1.19.51-1.79.85-6.33,3.63-10.39,6.97-13.65,9.65-5.44,4.49-8.42,6.94-16.81,7.01h-.21c-8.91.02-11.81-2.34-17-6.67-3.18-2.65-7.12-5.94-13.55-9.48-5.92-3.25-11.53-.65-13.8,3.46-2.26,4.08-1.39,10.05,4.65,13.56l.13.09,20.31,16.53-.33,54.74c.03,3.57,2.03,5.8,3.7,7.05,2.2,1.65,5.16,2.59,8.15,2.56,3.05-.03,5.75-1.04,7.61-2.84l.64-.62.69.55c.46.38.97.73,1.56,1.05,3.98,2.24,9.28,2.3,12.86.15,2.88-1.73,4.42-4.65,4.35-8.24l-1.37-54.67,14.71-11.65.62,74.12c0,.66.26,1.27.73,1.73.47.46,1.07.72,1.74.71,1.36-.01,2.45-1.13,2.44-2.49l-.65-77.95,1.88-1.48c6-3.76,6.73-9.8,4.35-13.82-1.22-2.08-3.29-3.64-5.67-4.29l-.73-.2-.18-22.52,37.15-.31.07,8.72c.01.66.27,1.27.74,1.73.47.46,1.12.71,1.74.71l36.25-.31c1.01,0,1.9-.62,2.27-1.55.37-.94.13-2-.6-2.69ZM184.8,184.46c1.1,1.87,1.01,4.88-2.86,7.24-.08.05-.17.11-.25.17l-22.49,17.82c-.61.48-.95,1.21-.93,1.99l1.39,55.89c.04,1.82-.6,3.1-1.96,3.91-2.08,1.25-5.49,1.15-7.94-.22-1.82-1.03-2.36-2.31-2.46-3.3h-.08l-.25-30.03c-.01-.65-.27-1.27-.74-1.73-.46-.46-1.09-.72-1.74-.7-1.35.01-2.45,1.12-2.44,2.48l.25,29.72c.02,2.19-1.03,3.33-1.92,3.9-.9.58-2.1.89-3.55.9h-.08c-3.26,0-6.77-1.77-6.82-4.67l.34-55.92c0-.75-.33-1.45-.91-1.92l-21.45-17.45c-.11-.1-.24-.18-.36-.25-3.88-2.16-4.04-5.14-3-7.03,1.12-2.01,3.82-3.35,7.14-1.53,6,3.3,9.59,6.3,12.77,8.95,5.23,4.36,9.37,7.81,19.99,7.81h.35c10.2-.08,14.49-3.62,19.92-8.1,3.31-2.73,7.02-5.79,13-9.21,3.25-1.86,5.95-.64,7.08,1.28ZM182.4,150.04l-.17-20.74,37.18-.32.18,20.75-37.19.31ZM224.56,160.87l-.07-8.34v-.06c.02-.11.03-.21.03-.32l-.12-14.21,28.04-.23-9.82,10.48c-.92.98-.87,2.54.11,3.46l9.52,8.99-27.69.23ZM144.58,154.13h-.15c-9.75.08-17.62,8.09-17.54,17.84.08,9.71,8,17.55,17.69,17.55h.15c9.7-.08,17.54-8.01,17.54-17.69v-.15c-.08-9.71-8-17.55-17.69-17.55ZM153.69,180.78c-2.4,2.43-5.6,3.79-9,3.82h-.11c-7,0-12.72-5.66-12.78-12.67-.06-7.05,5.63-12.83,12.67-12.89h.11c3.37,0,6.55,1.3,8.96,3.67,2.44,2.4,3.79,5.59,3.82,9,.03,3.41-1.28,6.63-3.67,9.07Z"/>
</svg>