<?xml version="1.0" encoding="UTF-8"?>
<svg id="Layer_1" data-name="Layer 1" xmlns="http://www.w3.org/2000/svg" viewBox="0 0 360 360">
  <defs>
    <style>
      .cls-1 {
        fill-rule: evenodd;
      }
    </style>
  </defs>
  <path class="cls-1" d="M204.4,148l-3.26-4.41-5.65,7.62h11.28l-2.38-3.21h0ZM193.45,155.87c.37,1.24,1.06,2.37,2.01,3.26,3.22,2.95,8.16,2.95,11.38,0,.95-.89,1.64-2.01,2.01-3.25h-15.39ZM147.96,148l-3.26-4.41-5.65,7.62h11.28l-2.37-3.21ZM137.01,155.87c.37,1.24,1.06,2.37,2.01,3.26,3.22,2.95,8.16,2.95,11.38,0,.95-.89,1.64-2.01,2-3.25h-15.39ZM185.25,184.56h-24.65c-1.88,0-3.4,1.53-3.41,3.41v3.41h31.47v-3.41c0-1.88-1.53-3.4-3.41-3.41h0ZM170.19,179.91h5.45v-46.93c-.04-1.51-1.3-2.69-2.8-2.65-1.44.04-2.61,1.2-2.65,2.65v46.93h0ZM160.59,179.91h4.95v-37.88h-16.22l7.51,10.14c.27.37.43.81.45,1.27.04.17.06.34.06.51-.01,3.25-1.37,6.36-3.75,8.57-5,4.65-12.74,4.65-17.75,0-2.38-2.21-3.74-5.32-3.75-8.57,0-.16.02-.32.05-.47.02-.54.22-1.05.57-1.45l10.03-13.56c.42-.68,1.17-1.1,1.97-1.1h20.84v-4.39c.07-4.08,3.43-7.32,7.51-7.25,3.98.07,7.18,3.28,7.25,7.25v4.39h20.84c.8,0,1.55.41,1.97,1.1l10.14,13.7c.31.54.48,1.15.51,1.78-.01,3.25-1.37,6.36-3.75,8.57-5,4.65-12.74,4.65-17.75,0-2.38-2.21-3.74-5.32-3.75-8.57.03-.69.24-1.35.62-1.92l7.41-9.99h-16.23v37.88h4.95c4.45,0,8.05,3.61,8.06,8.06v5.74c0,1.29-1.04,2.33-2.33,2.33h-36.13c-1.29,0-2.33-1.04-2.33-2.33v-5.74c.01-4.45,3.62-8.05,8.07-8.06h0ZM264.58,183.15l-27.45,47.18,5.74,3.34,27.45-47.18-5.74-3.34ZM264.9,177.96h0l7.75,4.52,4.05-6.97c.04-.09.09-.17.14-.25,1.04-1.94.4-4.35-1.46-5.52-.09-.04-.17-.09-.25-.15l-8.13-4.74c-1.99-1.15-4.54-.48-5.7,1.5l-4.13,7.11,7.74,4.5h0ZM231.1,241.95l-5.36,3.33.62-15.84,12.83,7.47-7.86,4.89c-.08.05-.16.1-.24.15ZM119.01,243.58l19.01,19.01v-19.01h-19.01ZM246.28,192.16l8.54-14.68,5.74,3.34-27.43,47.18-5.74-3.34,7-12.03c.06-.09.12-.19.16-.29l11.57-19.88c.06-.09.12-.19.16-.28h-.02ZM159.61,92.33h-7.8c-1.77-.03-3.5.51-4.93,1.55-1.01.68-1.65,1.8-1.72,3.03v.93c.02.16.02.33,0,.49v13.15h55.52v-13.15c-.02-.16-.02-.33,0-.49v-.93c-.07-1.22-.71-2.34-1.72-3.03-1.43-1.04-3.17-1.58-4.93-1.55h-7.84c-1.09-.02-2.01-.79-2.23-1.86-.03-.16-.05-.33-.05-.5,0-4.05-4.92-7.33-10.99-7.33-2.87-.06-5.68.77-8.05,2.38-1.71,1.08-2.81,2.91-2.94,4.93v.05c0,1.29-1.04,2.33-2.33,2.33h0ZM140.51,106.52h-27.11c-1.29,0-2.33,1.04-2.33,2.33h0v132.4h0v.07h0s0,.08,0,.12h0v.06h0v.05h0v.05h0v.05h0v.06h0v.1h0v.02h0v.05h0v.08h0v.02h0v.03s.01.03.01.03v.03s.01.03.01.03v.03s.01.02.01.02v.03h.01v.02h0v.05h.01v.02s.01.02.01.02h0v.02c.13.21.27.4.44.57l27.1,26.96c.44.45,1.04.71,1.67.71h92.11c1.29,0,2.33-1.05,2.33-2.33h0v-23.07l7.08-4.41v32.31c0,1.99-1.62,3.6-3.61,3.61H107.6c-1.99,0-3.6-1.62-3.61-3.61V104.03c0-1.99,1.62-3.6,3.61-3.61h32.91v6.11ZM205.35,111.18h24.78v99.52l-7.93,13.63c-.21.35-.31.76-.31,1.17l-.95,23.98c-.05,1.28.94,2.36,2.23,2.41.46.02.92-.1,1.32-.35h0l5.65-3.51v17.85h-87.45v-24.63c0-1.29-1.04-2.33-2.33-2.33h-24.63v-127.75h24.78v2.62c0,1.29,1.04,2.33,2.33,2.33h60.18c1.29,0,2.33-1.04,2.33-2.33v-2.62h0ZM205.35,100.41h32.9c1.99,0,3.6,1.62,3.61,3.61v86.5l-7.08,12.17v-93.84c0-1.29-1.04-2.33-2.33-2.33h-27.11v-6.11ZM151.81,87.68h5.75c.72-2.62,2.34-4.89,4.58-6.42,3.16-2.19,6.93-3.33,10.78-3.27,7.62,0,13.96,4.17,15.36,9.69h5.75c2.79-.03,5.51.85,7.75,2.51,1.84,1.33,3.08,3.33,3.47,5.57h32.98c4.56,0,8.26,3.71,8.27,8.27v78.49l5.45-9.38h0l5.3-9.1c2.45-4.2,7.84-5.63,12.05-3.19l8.29,4.82c4.19,2.46,5.62,7.84,3.19,12.05l-34.28,58.93v36.4c0,4.57-3.71,8.26-8.27,8.27H107.6c-4.57,0-8.26-3.71-8.27-8.27V104.03c.01-4.56,3.71-8.26,8.27-8.27h32.98c.39-2.24,1.64-4.24,3.48-5.57,2.24-1.66,4.96-2.54,7.75-2.51h0ZM130.38,214.61h85.08c1.29,0,2.33-1.04,2.33-2.33s-1.04-2.33-2.33-2.33h-85.08c-1.29,0-2.33,1.04-2.33,2.33s1.04,2.33,2.33,2.33ZM130.38,228.46h85.08c1.29.04,2.36-.97,2.4-2.26s-.97-2.36-2.26-2.4c-.05,0-.1,0-.15,0h-85.08c-1.29.04-2.3,1.11-2.26,2.4.04,1.23,1.03,2.22,2.26,2.26ZM154.63,242.31h60.84c1.29.04,2.36-.97,2.4-2.26s-.97-2.36-2.26-2.4c-.05,0-.1,0-.15,0h-60.84c-1.29.04-2.3,1.11-2.26,2.4.04,1.23,1.03,2.22,2.26,2.26Z"/>
</svg>