<?xml version="1.0" encoding="UTF-8"?>
<svg id="Layer_1" data-name="Layer 1" xmlns="http://www.w3.org/2000/svg" viewBox="0 0 360 360">
  <defs>
    <style>
      .cls-1 {
        fill: #fff;
      }
    </style>
  </defs>
  <path d="M92.45,215.08c-5.16,0-9.73-1.11-13.61-3.31-4.02-2.28-7.14-5.54-9.28-9.69-2.02-3.91-3.04-8.48-3.04-13.56s1.03-9.65,3.05-13.55c2.14-4.12,5.26-7.37,9.27-9.64,3.88-2.2,8.46-3.31,13.61-3.31,2.57,0,5.12.33,7.6.99,2.62.69,4.99,1.72,7.04,3.06,3.21,2.1,4.37,4.8,4.77,6.69.54,2.58.17,5.11-1.09,7.33-1.31,2.31-3.44,4-6,4.76-.86.25-1.77.39-2.68.39-2.03,0-4.01-.63-5.9-1.87-.43-.28-.89-.47-1.39-.59-.72-.18-1.42-.27-2.15-.27-2.42,0-3.05.72-3.26.96-.79.91-1.22,2.71-1.22,5.07,0,1.68.21,3.92,1.24,5.11.21.24.83.97,3.24.97.75,0,1.48-.09,2.21-.28.62-.16,1.2-.4,1.76-.74,1.85-1.15,3.78-1.73,5.72-1.73.88,0,1.75.12,2.59.36,2.54.72,4.66,2.39,5.96,4.68,1.21,2.12,1.61,4.54,1.17,6.99-.33,1.82-1.34,4.44-4.24,6.59-2.17,1.57-4.65,2.74-7.44,3.52-2.59.72-5.26,1.09-7.94,1.09Z"/>
  <path d="M118.21,215.08c-2.99,0-5.76-.62-8.23-1.84-2.61-1.29-4.72-3.11-6.26-5.41-1.64-2.44-2.47-5.21-2.47-8.22,0-4.42,1.63-7.35,3.09-9.09-.45-.73-.81-1.53-1.06-2.38-.65-2.2-.55-4.51.31-6.68,1-2.52,2.99-4.48,5.63-5.53,2.06-.85,4.11-1.47,6.08-1.84,1.95-.37,3.79-.55,5.47-.55,5.7,0,10.22,1.56,13.44,4.62,3.33,3.17,5.01,7.68,5.01,13.4v12.8c0,6.25-4.23,10.61-10.29,10.61-1.72,0-3.3-.35-4.68-.99-1.85.73-3.88,1.1-6.04,1.1Z"/>
  <path d="M142.21,214.98c-6.25,0-10.61-4.36-10.61-10.61v-20.16c0-6.22,4.3-10.56,10.45-10.56,1.92,0,3.66.42,5.14,1.19,1.59-.62,3.45-1.07,5.62-1.27.36-.04.72-.06,1.07-.06,4.23,0,8.77,2.83,9.36,9.17.55,5.83-3.23,10.35-9.19,10.97,0,0-1.28.12-1.29.12v10.59c0,6.25-4.34,10.61-10.56,10.61Z"/>
  <path d="M173.14,215.08c-10.82,0-17.55-6.68-17.55-17.44v-5.09c-3.31-1.51-5.44-4.75-5.44-8.78s2.17-7.32,5.52-8.82c.62-5.43,4.76-9.1,10.48-9.1,5.4,0,9.38,3.31,10.3,8.29,5.01.59,8.52,4.46,8.52,9.63s-3.42,8.94-8.32,9.6v1.45c.17,0,.34-.01.5-.01,2.36,0,4.55.94,6.17,2.66,1.59,1.7,2.39,3.97,2.39,6.79,0,1.67-.31,3.25-.91,4.68-1.02,2.42-2.97,4.25-5.49,5.15l-.15.05-.15.04c-.77.24-1.66.44-2.73.62-1.16.19-2.19.29-3.16.29Z"/>
  <path d="M193.31,215.08c-3.93,0-7.47-.86-10.53-2.56-3.21-1.77-5.73-4.33-7.49-7.6-1.67-3.09-2.51-6.67-2.51-10.64s.85-7.56,2.53-10.64c1.76-3.24,4.28-5.78,7.48-7.55,3.06-1.69,6.6-2.55,10.53-2.55s7.46.86,10.52,2.55c3.2,1.78,5.72,4.32,7.48,7.55,1.68,3.09,2.53,6.67,2.53,10.64s-.85,7.55-2.52,10.64c-1.76,3.27-4.28,5.83-7.49,7.6-3.06,1.69-6.6,2.55-10.53,2.55Z"/>
  <path d="M224.03,215.08c-3.92,0-7.47-.86-10.53-2.55-3.21-1.77-5.73-4.33-7.49-7.6-1.67-3.09-2.51-6.67-2.51-10.64s.85-7.56,2.53-10.64c1.76-3.24,4.27-5.78,7.48-7.55,3.06-1.7,6.61-2.55,10.53-2.55s7.46.86,10.53,2.55c3.2,1.77,5.72,4.31,7.48,7.55,1.68,3.09,2.53,6.67,2.53,10.64s-.85,7.55-2.52,10.64c-1.76,3.27-4.28,5.83-7.49,7.6-3.06,1.69-6.6,2.55-10.53,2.55Z"/>
  <path d="M263.97,214.98c-3.92,0-7.1-1.74-8.91-4.58-1.81,2.85-4.99,4.58-8.91,4.58-6.19,0-10.51-4.36-10.51-10.61v-20.16c0-6.22,4.3-10.56,10.45-10.56,1.9,0,3.62.41,5.09,1.17,2.12-.85,4.42-1.27,6.85-1.27,12.11,0,16.43,9.26,16.43,17.92v12.91c0,6.25-4.32,10.61-10.51,10.61Z"/>
  <path d="M283.6,215.08c-1.97,0-4.05-.2-6.18-.6-2.5-.47-4.82-1.31-6.87-2.5-2.99-1.71-4.21-4.11-4.7-5.83-.63-2.19-.51-4.45.36-6.52.47-1.12,1.15-2.13,1.98-2.98-1.36-2.14-2.09-4.71-2.09-7.59,0-3.26.99-6.29,2.87-8.77,1.73-2.29,4.08-4.04,6.96-5.21,2.53-1.02,5.37-1.54,8.46-1.54,4.34,0,8.32,1,11.84,2.97,2.54,1.38,4.24,3.63,4.79,6.36.43,2.17.16,4.35-.79,6.31-.32.66-.71,1.28-1.16,1.84,1.88,2.34,2.87,5.26,2.87,8.55,0,4.87-2.13,9.11-6,11.93-3.27,2.38-7.43,3.59-12.34,3.59Z"/>
  <g>
    <path class="cls-1" d="M102.96,199.14c-.75-.21-1.6-.02-2.56.59-1.17.71-2.42,1.24-3.73,1.57-1.32.34-2.65.51-4,.51-3.8,0-6.7-1.15-8.69-3.47-1.99-2.31-2.99-5.58-2.99-9.81s1-7.49,2.99-9.79c1.99-2.29,4.89-3.44,8.69-3.44,1.32,0,2.61.16,3.89.48,1.28.32,2.47.84,3.57,1.55.96.64,1.83.85,2.61.61.78-.23,1.37-.69,1.76-1.39.39-.69.5-1.46.32-2.29-.18-.83-.73-1.55-1.65-2.16-1.42-.92-3.08-1.63-4.96-2.13s-3.8-.75-5.76-.75c-3.91,0-7.26.79-10.05,2.37-2.79,1.58-4.93,3.81-6.43,6.69-1.49,2.88-2.24,6.29-2.24,10.24s.75,7.37,2.24,10.27c1.49,2.9,3.64,5.14,6.43,6.72,2.79,1.58,6.14,2.37,10.05,2.37,2.03,0,4.03-.28,6-.83s3.67-1.34,5.09-2.37c.82-.6,1.3-1.3,1.44-2.08.14-.78.03-1.5-.35-2.16-.37-.66-.93-1.09-1.68-1.31Z"/>
    <path class="cls-1" d="M120.77,180.74c-1.25,0-2.62.14-4.13.43-1.51.29-3.08.76-4.72,1.44-.82.32-1.36.82-1.63,1.49-.27.68-.3,1.34-.11,2,.2.66.58,1.14,1.15,1.44.57.3,1.28.26,2.13-.13,1.31-.6,2.57-1.03,3.76-1.28s2.3-.37,3.33-.37c1.85,0,3.16.39,3.95,1.17.78.78,1.17,2.06,1.17,3.84v1.12h-1.87c-3.77,0-6.77.25-9.01.75s-3.86,1.31-4.85,2.43-1.49,2.64-1.49,4.56c0,1.57.42,2.97,1.25,4.21.83,1.25,1.99,2.23,3.47,2.96,1.47.73,3.15,1.09,5.04,1.09s3.38-.42,4.69-1.25c1.31-.83,2.27-1.98,2.88-3.44v1.17c0,2.28,1.05,3.41,3.15,3.41s3.09-1.14,3.09-3.41v-12.8c0-3.7-.93-6.43-2.77-8.19-1.85-1.76-4.68-2.64-8.48-2.64ZM125.68,196.9c0,1.85-.58,3.38-1.73,4.59-1.16,1.21-2.61,1.81-4.35,1.81-1.46,0-2.6-.37-3.41-1.12-.82-.75-1.23-1.71-1.23-2.88,0-1.35.65-2.29,1.95-2.8,1.3-.51,3.62-.77,6.96-.77h1.81v1.17Z"/>
    <path class="cls-1" d="M153.52,180.74c-4.2.36-6.93,2.06-8.21,5.12v-1.65c0-2.24-1.08-3.36-3.25-3.36s-3.25,1.12-3.25,3.36v20.16c0,2.28,1.14,3.41,3.41,3.41s3.36-1.14,3.36-3.41v-11.04c0-4.05,2.19-6.29,6.56-6.72l1.17-.11c2.03-.21,2.95-1.26,2.77-3.15-.18-1.92-1.03-2.79-2.56-2.61Z"/>
    <path class="cls-1" d="M177.04,202.02c-.36.04-.76.11-1.23.21-.46.11-1,.16-1.6.16-1.67,0-2.88-.43-3.63-1.28-.75-.85-1.12-2.13-1.12-3.84v-10.99h5.65c1.78,0,2.67-.83,2.67-2.51s-.89-2.51-2.67-2.51h-5.65v-4.85c0-2.24-1.1-3.36-3.31-3.36s-3.36,1.12-3.36,3.36v4.85h-2.77c-1.78,0-2.67.84-2.67,2.51s.89,2.51,2.67,2.51h2.77v11.36c0,6.83,3.45,10.24,10.35,10.24.57,0,1.23-.06,1.97-.19.75-.12,1.35-.26,1.81-.4.6-.21,1.02-.6,1.25-1.15.23-.55.35-1.18.35-1.89,0-.92-.14-1.54-.43-1.84-.28-.3-.64-.43-1.07-.4Z"/>
    <path class="cls-1" d="M200.35,182.39c-1.99-1.1-4.34-1.65-7.04-1.65s-5.05.55-7.04,1.65c-1.99,1.1-3.54,2.67-4.64,4.69-1.1,2.03-1.65,4.43-1.65,7.2s.55,5.18,1.65,7.23c1.1,2.04,2.65,3.62,4.64,4.72,1.99,1.1,4.34,1.65,7.04,1.65s5.05-.55,7.04-1.65c1.99-1.1,3.54-2.67,4.64-4.72,1.1-2.04,1.65-4.45,1.65-7.23s-.55-5.17-1.65-7.2c-1.1-2.03-2.65-3.59-4.64-4.69ZM198.11,200.66c-1.21,1.44-2.81,2.16-4.8,2.16s-3.59-.72-4.8-2.16c-1.21-1.44-1.81-3.56-1.81-6.37s.6-4.97,1.81-6.37c1.21-1.4,2.81-2.11,4.8-2.11s3.59.7,4.8,2.11c1.21,1.41,1.81,3.53,1.81,6.37s-.61,4.93-1.81,6.37Z"/>
    <path class="cls-1" d="M231.07,182.39c-1.99-1.1-4.34-1.65-7.04-1.65s-5.05.55-7.04,1.65c-1.99,1.1-3.54,2.67-4.64,4.69-1.1,2.03-1.65,4.43-1.65,7.2s.55,5.18,1.65,7.23c1.1,2.04,2.65,3.62,4.64,4.72,1.99,1.1,4.34,1.65,7.04,1.65s5.05-.55,7.04-1.65c1.99-1.1,3.54-2.67,4.64-4.72,1.1-2.04,1.65-4.45,1.65-7.23s-.55-5.17-1.65-7.2c-1.1-2.03-2.65-3.59-4.64-4.69ZM228.83,200.66c-1.21,1.44-2.81,2.16-4.8,2.16s-3.59-.72-4.8-2.16c-1.21-1.44-1.81-3.56-1.81-6.37s.6-4.97,1.81-6.37c1.21-1.4,2.81-2.11,4.8-2.11s3.59.7,4.8,2.11c1.21,1.41,1.81,3.53,1.81,6.37s-.6,4.93-1.81,6.37Z"/>
    <path class="cls-1" d="M258.05,180.74c-1.88,0-3.58.39-5.09,1.17-1.51.78-2.71,1.92-3.6,3.41v-1.12c0-2.24-1.08-3.36-3.25-3.36s-3.25,1.12-3.25,3.36v20.16c0,2.28,1.1,3.41,3.31,3.41s3.36-1.14,3.36-3.41v-11.68c0-2.03.58-3.65,1.73-4.88,1.16-1.23,2.71-1.84,4.67-1.84,1.6,0,2.78.46,3.55,1.39.76.92,1.15,2.4,1.15,4.43v12.59c0,2.28,1.12,3.41,3.36,3.41s3.31-1.14,3.31-3.41v-12.91c0-7.15-3.08-10.72-9.23-10.72Z"/>
    <path class="cls-1" d="M292.96,194.98c-1.19-1.14-2.94-1.92-5.25-2.35l-5.33-1.01c-2.03-.35-3.04-1.32-3.04-2.88,0-1,.42-1.79,1.25-2.4.83-.6,2.12-.91,3.87-.91.92,0,1.89.12,2.91.37,1.01.25,2.07.66,3.17,1.23.75.36,1.4.42,1.97.19.57-.23.99-.62,1.25-1.17.27-.55.34-1.14.21-1.76-.12-.62-.53-1.11-1.2-1.47-2.45-1.39-5.25-2.08-8.37-2.08-2.17,0-4.09.34-5.76,1.01-1.67.68-2.98,1.64-3.92,2.88s-1.41,2.72-1.41,4.43c0,3.84,2.26,6.19,6.77,7.04l5.33,1.01c2.2.43,3.31,1.39,3.31,2.88,0,.96-.42,1.73-1.25,2.32-.84.59-2.11.88-3.81.88-1.21,0-2.44-.13-3.68-.4-1.25-.27-2.58-.74-4-1.41-.75-.35-1.4-.41-1.95-.16-.55.25-.94.65-1.17,1.2-.23.55-.26,1.14-.08,1.76.18.62.64,1.15,1.39,1.57,1.35.78,2.88,1.33,4.59,1.65,1.71.32,3.32.48,4.85.48,3.38,0,6.08-.74,8.11-2.21s3.04-3.51,3.04-6.11c0-1.92-.6-3.45-1.79-4.59Z"/>
  </g>
</svg>