<?xml version="1.0" encoding="UTF-8"?>
<svg id="Layer_1" data-name="Layer 1" xmlns="http://www.w3.org/2000/svg" viewBox="0 0 360 360">
  <path d="M227.91,299.16h-102.74c-8.71,0-15.79-7.08-15.79-15.79,0-4.2,1.65-8.16,4.64-11.15s6.93-4.6,11.15-4.6h102.74c1.13,0,2.15.65,2.63,1.68.48,1.02.31,2.23-.41,3.09-6.33,7.51-6.33,14.5,0,22,.73.86.89,2.07.41,3.09-.47,1.02-1.5,1.68-2.63,1.68ZM125.17,273.42c-2.68,0-5.18,1.03-7.05,2.9-1.9,1.9-2.94,4.4-2.94,7.05,0,5.51,4.48,9.99,9.99,9.99h97.18c-3.69-6.59-3.69-13.35,0-19.94h-97.18Z"/>
  <path d="M205.62,273.41h-102.74c-8.7,0-15.79-7.08-15.79-15.79,0-4.2,1.65-8.16,4.64-11.15,2.97-2.97,6.93-4.6,11.15-4.6h102.74c1.13,0,2.15.65,2.63,1.68.48,1.02.31,2.23-.41,3.09-6.34,7.51-6.34,14.5,0,22,.73.86.89,2.07.41,3.09-.47,1.02-1.5,1.68-2.63,1.68ZM102.89,247.67c-2.68,0-5.18,1.03-7.05,2.9-1.89,1.9-2.94,4.4-2.94,7.05,0,5.51,4.48,9.99,9.99,9.99h97.18c-3.69-6.59-3.69-13.35,0-19.94h-97.18Z"/>
  <path d="M183.03,247.66h-52.85c-1.6,0-2.9-1.3-2.9-2.9v-13.37c0-3.15,2.56-5.71,5.71-5.71h47.22c3.15,0,5.71,2.56,5.71,5.71v13.37c0,1.6-1.3,2.9-2.9,2.9ZM133.06,241.87h47.07v-10.39h-47.14l.07,10.39Z"/>
  <path d="M165.08,231.48h-16.93c-1.6,0-2.9-1.3-2.9-2.9v-75.14c0-1.6,1.3-2.9,2.9-2.9h16.93c1.6,0,2.9,1.3,2.9,2.9v75.14c0,1.6-1.3,2.9-2.9,2.9ZM151.05,225.68h11.13v-69.34h-11.13v69.34Z"/>
  <path d="M122.39,184.51h-44.82c-1.1,0-2.1-.62-2.59-1.61-.49-.98-.38-2.16.28-3.04l22.41-29.7c1.1-1.45,3.53-1.45,4.63,0l22.41,29.7c.66.88.77,2.05.28,3.04-.49.98-1.49,1.61-2.59,1.61ZM83.39,178.72h33.18l-16.59-21.99-16.59,21.99Z"/>
  <path d="M100.04,215.24c-16.15,0-29.18-13.04-29.18-29.06,0-4.11,3.34-7.45,7.45-7.45h43.34c4.11,0,7.45,3.34,7.45,7.45,0,16.02-13.04,29.06-29.06,29.06ZM78.31,184.52c-.91,0-1.66.74-1.66,1.66,0,12.83,10.44,23.27,23.27,23.27s23.39-10.44,23.39-23.27c0-.91-.74-1.66-1.66-1.66h-43.34Z"/>
  <path d="M234.88,184.51h-43.33c-1.09,0-2.09-.61-2.58-1.58-.49-.97-.4-2.14.24-3.02l21.66-29.7c1.09-1.49,3.59-1.49,4.68,0l21.66,29.7c.64.88.74,2.05.24,3.02-.5.97-1.49,1.58-2.58,1.58ZM197.26,178.72h31.93l-15.96-21.89-15.96,21.89Z"/>
  <path d="M213.28,215.24c-16.15,0-29.18-13.04-29.18-29.06,0-4.11,3.34-7.45,7.45-7.45h43.34c4.11,0,7.45,3.34,7.45,7.45,0,16.02-13.04,29.06-29.06,29.06ZM191.55,184.52c-.91,0-1.66.74-1.66,1.66,0,12.83,10.44,23.27,23.27,23.27s23.39-10.44,23.39-23.27c0-.91-.74-1.66-1.66-1.66h-43.34Z"/>
  <path d="M156.47,140.43c-1.6,0-3.04-1.44-3.04-3.04s1.44-3.05,3.04-3.05,3.05,1.44,3.05,3.05-1.44,3.04-3.05,3.04Z"/>
  <path d="M165.42,156.34h-18.02c-2.37-.05-4.55-1.08-6.06-2.82-1.52-1.75-2.23-4.08-1.95-6.38l2.62-21.51c.53-4.11,4.02-7.2,8.12-7.2h12.67c4.15,0,7.65,3.11,8.12,7.23l2.65,21.44c.28,2.29-.4,4.58-1.87,6.32-1.4,1.65-3.41,2.69-5.55,2.86-.32.06-.58.06-.73.06ZM164.44,150.82s0,0,0,0c0,0,0,0,0,0ZM164.44,150.82h0,0ZM150.13,124.23c-1.19,0-2.21.92-2.37,2.14l-2.62,21.48c-.08.69.12,1.36.58,1.89.45.52,1.07.81,1.75.82h17.82c.1-.02.21-.03.31-.03.65-.03,1.25-.33,1.68-.83.44-.52.63-1.17.55-1.84l-.44-3.27-2.22-18.21c-.14-1.21-1.18-2.13-2.37-2.13h-12.67Z"/>
  <path d="M213.22,154.81c-6.98,0-12.63-5.38-12.97-12.3-.04-.29-.04-.53-.04-.69,0-5.37,3.38-10.25,8.41-12.15,1.43-.57,2.99-.86,4.6-.86,7.17,0,13.01,5.84,13.01,13.01s-5.84,12.98-13.01,12.98ZM206,141.8c.02.11.02.21.03.32.13,3.87,3.28,6.9,7.19,6.9s7.22-3.22,7.22-7.19-3.24-7.21-7.22-7.21c-.87,0-1.72.16-2.51.47-2.86,1.08-4.69,3.7-4.7,6.71ZM205.94,141.49s0,0,0,0c0,0,0,0,0,0Z"/>
  <path d="M203.1,142.26c-.58,0-1.16-.17-1.67-.53-6.66-4.7-19.38-11.12-29.74-1.26-1.16,1.1-2.99,1.06-4.1-.1-1.1-1.16-1.06-2.99.1-4.1,9.76-9.28,23.27-9.02,37.08.73,1.31.92,1.62,2.73.7,4.04-.56.8-1.46,1.23-2.37,1.23Z"/>
  <path d="M109.88,142.26c-.91,0-1.81-.43-2.37-1.23-.92-1.31-.61-3.12.7-4.04,13.8-9.75,27.32-10.01,37.08-.73,1.16,1.1,1.2,2.94.1,4.1-1.11,1.16-2.93,1.21-4.1.1-10.36-9.86-23.08-3.44-29.74,1.26-.51.36-1.09.53-1.67.53Z"/>
  <path d="M99.99,154.81c-7.17,0-13.01-5.82-13.01-12.98s5.84-13.01,13.01-13.01c1.58,0,3.09.27,4.48.81,5.08,1.83,8.53,6.74,8.53,12.2,0,.12-.01.29-.03.46-.22,6.92-6.01,12.52-12.98,12.52ZM99.99,134.62c-3.98,0-7.22,3.24-7.22,7.21s3.24,7.19,7.22,7.19,7.1-3.13,7.18-6.98c0-.11.01-.23.03-.34-.06-3.01-1.91-5.6-4.77-6.63-.77-.3-1.59-.44-2.45-.44ZM110.07,142.09h.03-.03ZM109.28,141.83h.01s.81,0,.81,0h-.82Z"/>
</svg>