<?xml version="1.0" encoding="UTF-8"?>
<svg id="Layer_1" data-name="Layer 1" xmlns="http://www.w3.org/2000/svg" viewBox="0 0 360 360">
  <path d="M215.13,152.78h-109.1v88.33h109.1v-88.33h0ZM111.2,157.98h98.73v46.61l-23.27-35.76-21.75,32.88-12.11-20.2-32.66,54.41h-8.94v-77.93ZM179.36,235.91h-53.17l26.6-44.32,26.57,44.32ZM185.42,235.91l-17.56-29.3,18.77-28.34,23.3,35.83v21.78h-24.51v.03Z"/>
  <path d="M251.49,116.41H111.2v20.77h-20.77v140.29h140.29v-20.77h20.77V116.41ZM225.53,272.28H95.63v-129.9h129.9v129.9ZM246.29,251.51h-15.6v-114.33h-114.3v-15.57h129.9v129.9Z"/>
  <path d="M132,191.74c7.17,0,13-5.83,13-13s-5.83-13-13-13-13,5.83-13,13,5.83,13,13,13ZM132,170.98c4.31,0,7.8,3.49,7.8,7.8s-3.49,7.8-7.8,7.8-7.8-3.49-7.8-7.8c0-4.31,3.49-7.8,7.8-7.8Z"/>
  <rect x="157.96" y="254.11" width="5.2" height="5.2"/>
  <rect x="168.36" y="254.11" width="5.2" height="5.2"/>
  <rect x="147.6" y="254.11" width="5.2" height="5.2"/>
</svg>