<?xml version="1.0" encoding="UTF-8"?>
<svg id="Layer_1" data-name="Layer 1" xmlns="http://www.w3.org/2000/svg" viewBox="0 0 360 360">
  <path d="M165.7,204.78l-4.62-15.4c.65-1.87,1.15-3.79,1.49-5.75.24-1.43-.5-2.84-1.82-3.45-.79-.37-1.68-.39-2.45-.11l-21.65-72.14c-.52-1.71-2.31-2.68-4.02-2.16-1.45.44-2.36,1.79-2.29,3.24-11.19.99-20.19,7-28.2,12.35-7.78,5.2-15.13,10.1-23.46,10.1-1.03,0-2.02.5-2.61,1.34-.61.84-.77,1.92-.44,2.91l9.69,29.05c.44,1.32,1.68,2.21,3.07,2.21,7.78,0,13.58-3.92,19.2-7.72,7.41-5,15.06-10.17,28.83-8.46,1.77.23,3.38-1.03,3.6-2.81.23-1.77-1.03-3.38-2.81-3.6-16.16-2.02-25.63,4.37-33.24,9.51-4.54,3.07-8.56,5.78-13.32,6.45l-7.59-22.78c8.39-1.31,15.64-6.15,22.68-10.85,8.02-5.36,16.31-10.89,26.41-11.37l20.91,69.71c-4.29,4.19-11.68,10.62-19.95,14.38.31-1.1.46-2.24.46-3.42,0-7.12-5.8-12.91-12.91-12.91s-12.91,5.8-12.91,12.91c0,.76.07,1.52.19,2.24-8.68-5.04-16.92-13.27-20.35-17.26-1.02-1.19-2.74-1.48-4.09-.68-1.35.79-1.93,2.45-1.38,3.91,8.31,22.15,21.16,32.88,25.62,36.09v24.12c0,1.78,1.44,3.23,3.23,3.23s3.23-1.44,3.23-3.23v-25.83c0-1.13-.6-2.18-1.56-2.76-.11-.06-8.51-5.29-16.55-17.92,7.12,5.63,16.11,10.99,24.57,10.99,11.36,0,22.47-6.92,30.28-13.29-7.28,11.68-19.08,20.23-19.24,20.34-.85.61-1.36,1.58-1.36,2.63v25.83c0,.12,0,.24.02.36l5.76,50.96c.08.73.4,1.4.92,1.92l1.65,1.65h-5.55l-6.06-42.42c-.21-1.5-1.45-2.66-2.97-2.76-1.52-.11-2.91.86-3.33,2.32l-11.3,38.74c-.29.98-.1,2.03.52,2.84l.97,1.29h-5.8l8.39-44.6c.33-1.75-.82-3.44-2.57-3.77-1.75-.33-3.44.82-3.77,2.57l-9.12,48.43c-.18.94.07,1.92.69,2.66.61.74,1.53,1.16,2.49,1.16h16.14c1.23,0,2.34-.69,2.89-1.78.55-1.1.43-2.41-.31-3.38l-3.87-5.17,6.67-22.85,4.34,30.41c.23,1.59,1.59,2.78,3.2,2.78h16.14c1.31,0,2.49-.79,2.99-1.99.5-1.21.23-2.6-.69-3.52l-6.36-6.36-5.62-49.65v-24.04c3.64-2.81,13.64-11.12,20.19-22.1l2.55,8.5c.42,1.4,1.7,2.3,3.09,2.3.31,0,.62-.05.93-.14,1.71-.52,2.68-2.31,2.16-4.02l.02-.02ZM114.18,196.02c0-3.56,2.9-6.46,6.46-6.46s6.46,2.9,6.46,6.46-2.9,6.46-6.46,6.46-6.46-2.9-6.46-6.46Z"/>
  <path d="M243.18,204.78l-4.62-15.4c.65-1.87,1.15-3.79,1.49-5.75.24-1.43-.5-2.84-1.82-3.45-.79-.37-1.68-.39-2.45-.11l-21.65-72.14c-.52-1.71-2.31-2.68-4.02-2.16-1.45.44-2.36,1.79-2.29,3.24-11.19.99-20.19,7-28.2,12.35-7.78,5.2-15.13,10.1-23.46,10.1-1.03,0-2.02.5-2.61,1.34-.61.84-.77,1.92-.44,2.91l9.69,29.05c.44,1.32,1.68,2.21,3.07,2.21,7.78,0,13.58-3.92,19.2-7.72,7.41-5,15.06-10.17,28.83-8.46,1.77.23,3.38-1.03,3.6-2.81.23-1.77-1.03-3.38-2.81-3.6-16.16-2.02-25.63,4.37-33.24,9.51-4.54,3.07-8.56,5.78-13.32,6.45l-7.59-22.78c8.39-1.31,15.64-6.15,22.68-10.85,8.02-5.36,16.31-10.89,26.41-11.37l20.91,69.71c-4.29,4.19-11.68,10.62-19.95,14.38.31-1.1.46-2.24.46-3.42,0-7.12-5.8-12.91-12.91-12.91s-12.91,5.8-12.91,12.91c0,3.18,1.16,6.1,3.08,8.35-17.64,7.05-25.17,31.48-25.54,32.7-.4,1.32.1,2.74,1.21,3.55,1.12.81,2.63.81,3.75,0l17.5-12.49v16.33c0,1.78,1.44,3.23,3.23,3.23s3.23-1.44,3.23-3.23v-22.6c0-1.21-.68-2.32-1.75-2.87-1.08-.55-2.37-.46-3.36.24l-13.31,9.51c4.53-8.69,12.7-19.79,24.88-19.79,11.36,0,22.47-6.92,30.28-13.29-7.28,11.68-19.08,20.23-19.24,20.34-.85.61-1.36,1.58-1.36,2.63v25.83c0,.12,0,.24.02.36l5.76,50.96c.08.73.4,1.4.92,1.92l1.65,1.65h-5.55l-6.06-42.42c-.21-1.5-1.45-2.66-2.97-2.76-1.52-.11-2.91.86-3.33,2.32l-11.3,38.74c-.29.98-.1,2.03.52,2.84l.97,1.29h-5.8l8.39-44.6c.33-1.75-.82-3.44-2.57-3.77-1.75-.33-3.44.82-3.77,2.57l-9.12,48.43c-.18.94.07,1.92.69,2.66.61.74,1.53,1.16,2.49,1.16h16.14c1.23,0,2.34-.69,2.89-1.78.55-1.1.43-2.41-.31-3.38l-3.87-5.17,6.67-22.85,4.34,30.41c.23,1.59,1.59,2.78,3.2,2.78h16.14c1.31,0,2.49-.79,2.99-1.99.5-1.21.23-2.6-.69-3.52l-6.36-6.36-5.62-49.65v-24.04c3.64-2.81,13.64-11.12,20.19-22.1l2.55,8.5c.42,1.4,1.7,2.3,3.09,2.3.31,0,.62-.05.93-.14,1.71-.52,2.68-2.31,2.16-4.02h.02ZM191.66,196.02c0-3.56,2.9-6.46,6.46-6.46s6.46,2.9,6.46,6.46-2.9,6.46-6.46,6.46-6.46-2.9-6.46-6.46Z"/>
</svg>