<?xml version="1.0" encoding="UTF-8"?>
<svg id="Layer_1" data-name="Layer 1" xmlns="http://www.w3.org/2000/svg" viewBox="0 0 360 360">
  <path d="M253.7,224.64l-.99-.56.68-.91c3.12-4.17,4.71-8.85,4.71-13.92,0-10.14-6.77-19.16-16.45-21.92l-.55-.16-.14-.56c-2.12-8.49-7.91-15.93-15.87-20.43l-.99-.56.68-.91c3.08-4.1,4.7-8.84,4.7-13.7,0-12.63-10.27-22.91-22.91-22.91s-22.91,10.28-22.91,22.91c0,5.07,1.58,9.75,4.71,13.91l.68.92-1,.55c-5.52,3.07-9.79,7.27-12.69,12.49l-.86,1.54-.88-1.53c-3.02-5.24-7.42-9.56-12.7-12.5l-1-.55.69-.92c3.12-4.16,4.7-8.84,4.7-13.91,0-12.63-10.28-22.91-22.91-22.91s-22.91,10.28-22.91,22.91c0,4.92,1.67,9.86,4.7,13.91l.7.93-1.02.55c-7.71,4.15-13.49,11.52-15.86,20.23l-.15.54-.54.15c-9.68,2.83-16.44,11.85-16.44,21.93,0,5.07,1.58,9.75,4.7,13.92l.69.91-1,.56c-10.4,5.82-16.86,16.68-16.86,28.35v10.63c0,1.96,1.7,3.29,3.29,3.29h185.37c1.97,0,3.29-1.7,3.29-3.29v-10.63c.19-11.64-6.19-22.49-16.66-28.35ZM251.31,209.25c0,8.89-7.23,16.13-16.12,16.13s-16.13-7.24-16.13-16.13,7.23-16.12,16.13-16.12,16.12,7.23,16.12,16.12ZM206.57,134.88c8.89,0,16.13,7.24,16.13,16.13s-7.24,16.12-16.13,16.12-16.12-7.23-16.12-16.12,7.23-16.13,16.12-16.13ZM174.49,193.13c8.89,0,16.12,7.23,16.12,16.12s-7.23,16.13-16.12,16.13-16.13-7.24-16.13-16.13,7.24-16.12,16.13-16.12ZM142.4,134.88c8.89,0,16.12,7.24,16.12,16.13s-7.23,16.12-16.12,16.12-16.12-7.23-16.12-16.12,7.23-16.13,16.12-16.13ZM113.79,193.13c8.89,0,16.12,7.23,16.12,16.12s-7.23,16.13-16.12,16.13-16.13-7.24-16.13-16.13,7.24-16.12,16.13-16.12ZM140.3,243.42c-.79,3.18-1.19,6.4-1.19,9.57v7.13h-53.91v-7.13c0-10.45,6.57-20.11,16.36-24.02l.46-.18.42.24c3.48,2.05,7.41,3.14,11.35,3.14s7.86-1.09,11.34-3.14l.43-.24.45.18c6.44,2.57,11.5,7.48,14.24,13.81l.14.31-.09.33ZM144.24,235.52l-.82-1.17c-2.79-3.98-6.56-7.34-10.9-9.71l-1.01-.55.69-.92c3.12-4.17,4.7-8.85,4.7-13.92,0-11.55-8.94-21.53-20.35-22.71l-1.31-.13.48-1.22c2.5-6.48,7.78-11.68,14.47-14.27l.45-.17.41.24c3.49,2.05,7.41,3.13,11.35,3.13s7.86-1.08,11.35-3.13l.41-.24.44.17c6.79,2.54,12.35,8.11,14.9,14.89l.39,1.04-1.08.28c-9.99,2.59-17.24,11.9-17.24,22.12,0,5.07,1.59,9.75,4.71,13.92l.69.92-1.01.55c-4.34,2.37-8.11,5.73-10.9,9.71l-.82,1.17ZM202.87,259.33h-.59v1h-56.59v-7.34c0-10.45,6.58-20.11,16.37-24.02l.45-.18.43.24c3.48,2.05,7.4,3.14,11.34,3.14s7.87-1.09,11.35-3.14l.42-.24.46.18c9.94,3.97,16.36,13.4,16.36,24.02v6.34ZM204.71,235.48l-.8-1.13c-2.79-3.98-6.55-7.34-10.9-9.71l-1.01-.55.69-.92c3.12-4.17,4.71-8.85,4.71-13.92,0-10.44-7.09-19.54-17.23-22.12l-1.09-.28.4-1.04c2.61-6.97,8.04-12.4,14.9-14.9l.44-.16.41.24c3.48,2.05,7.4,3.13,11.34,3.13s7.87-1.08,11.35-3.13l.42-.24.45.17c6.49,2.51,11.9,7.84,14.46,14.26l.49,1.2-1.3.16c-11.5,1.39-20.17,11.15-20.17,22.71,0,5.07,1.59,9.75,4.71,13.92l.69.92-1.01.55c-4.23,2.31-8.08,5.68-11.13,9.74l-.82,1.1ZM263.57,259.33h-.8v1h-52.91v-7.14c0-2.94-.44-5.97-1.39-9.55l-.09-.33.14-.32c2.74-6.34,7.8-11.24,14.24-13.82l.45-.18.42.25c3.49,2.05,7.41,3.13,11.35,3.13s7.86-1.08,11.35-3.13l.42-.25.46.18c9.94,3.98,16.36,13.41,16.36,24.02v6.14Z"/>
</svg>