<?xml version="1.0" encoding="UTF-8"?>
<svg id="Layer_1" data-name="Layer 1" xmlns="http://www.w3.org/2000/svg" viewBox="0 0 360 360">
  <defs>
    <style>
      .cls-1 {
        fill-rule: evenodd;
      }
    </style>
  </defs>
  <path class="cls-1" d="M263.91,224.09c-.06-1.64-.74-10.18-8.5-17.04-6.53-5.78-16.13-8.72-28.54-8.72-9.04,0-16.66,1.58-22.64,4.69l-.6.32-.59-.34c-6.21-3.49-14.27-5.26-23.96-5.26s-17.75,1.77-23.96,5.26l-.59.34-.6-.32c-5.97-3.11-13.59-4.69-22.64-4.69-12.41,0-22.01,2.94-28.54,8.72-7.75,6.86-8.44,15.4-8.5,17.04v.29c0,6.06.04,10.61.68,13.91.54,2.81,1.54,4.98,3.04,6.64,2.37,2.63,6.28,4.12,12.32,4.69l.17.02h137.24l.17-.02c6.04-.57,9.95-2.06,12.32-4.69,1.5-1.66,2.5-3.83,3.04-6.64.64-3.3.69-7.85.69-13.9v-.3ZM147.19,209.56c-5.17,6.26-5.66,12.95-5.71,14.23v.29c-.01,6.15.04,10.75.69,14.09.19.99.44,1.91.74,2.73l.6,1.67h-32.77c-3.67-.36-6.01-.69-7.53-2.37-1.07-1.19-1.33-2.75-1.56-4.68-.34-2.82-.34-6.35-.34-10.82v-.31c.01-.3.2-6.81,6.12-12.05,5.2-4.61,13.23-6.94,23.86-6.94,5.91,0,11.07.73,15.34,2.18l1.71.58-1.15,1.4ZM209.62,224.4c0,4.54,0,8.12-.34,10.98-.24,1.96-.51,3.56-1.6,4.77-1.56,1.72-3.95,2.06-7.69,2.42h-41.81c-3.75-.36-6.14-.7-7.7-2.42-1.09-1.21-1.36-2.81-1.6-4.77-.34-2.85-.34-6.42-.34-10.94v-.34c0-.31.18-6.9,6.24-12.25,5.3-4.68,13.47-7.05,24.3-7.05s19,2.37,24.3,7.05c6.04,5.33,6.24,11.94,6.24,12.22v.33ZM256.85,224.73c0,4.46,0,7.98-.34,10.79-.23,1.92-.49,3.49-1.56,4.68-1.52,1.68-3.86,2.02-7.52,2.37v-.02c-.75.02-4.89.02-31,.02h-1.78l.61-1.67c.29-.83.54-1.74.73-2.73.65-3.34.7-7.94.7-14.08v-.3c-.05-1.28-.54-7.96-5.72-14.23l-1.15-1.4,1.71-.58c4.28-1.45,9.43-2.18,15.34-2.18,10.63,0,18.66,2.33,23.86,6.94,5.94,5.26,6.12,11.75,6.12,12.03v.36ZM179.98,148.72c-10.69,0-19.38,8.69-19.38,19.37s8.69,19.38,19.38,19.38,19.37-8.7,19.37-19.38-8.69-19.37-19.37-19.37ZM179.98,180.4c-6.79,0-12.31-5.52-12.31-12.31s5.52-12.31,12.31-12.31,12.31,5.52,12.31,12.31-5.53,12.31-12.31,12.31ZM132.45,148.72c-10.85,0-19.67,8.69-19.67,19.37s8.82,19.38,19.67,19.38,19.67-8.7,19.67-19.38-8.82-19.37-19.67-19.37ZM132.45,180.4c-6.95,0-12.61-5.52-12.61-12.31s5.66-12.31,12.61-12.31,12.61,5.52,12.61,12.31-5.66,12.31-12.61,12.31ZM225.71,148.72c-10.85,0-19.67,8.69-19.67,19.37s8.82,19.38,19.67,19.38,19.67-8.7,19.67-19.38-8.82-19.37-19.67-19.37ZM225.71,180.4c-6.95,0-12.61-5.52-12.61-12.31s5.66-12.31,12.61-12.31,12.61,5.52,12.61,12.31-5.66,12.31-12.61,12.31Z"/>
</svg>