<?xml version="1.0" encoding="UTF-8"?>
<svg id="Layer_1" data-name="Layer 1" xmlns="http://www.w3.org/2000/svg" viewBox="0 0 360 360">
  <path d="M159.39,191.54c-3.94-3.94-9.18-6.11-14.76-6.11h-.01c-11.52.01-20.88,9.38-20.87,20.9,0,5.58,2.18,10.82,6.12,14.76,3.95,3.94,9.19,6.11,14.76,6.11h.02c5.75-.01,10.96-2.36,14.74-6.14,3.78-3.78,6.13-9,6.13-14.74s-2.18-10.84-6.13-14.78ZM144.63,220.42h-.01c-3.77,0-7.31-1.47-9.97-4.14-2.66-2.66-4.13-6.21-4.12-9.98,0-7.77,6.33-14.09,14.1-14.09h.02c3.88.01,7.4,1.59,9.95,4.15,2.55,2.55,4.14,6.08,4.14,9.96-.01,7.78-6.34,14.1-14.11,14.1Z"/>
  <path d="M273.13,101.07c-5.18-5.55-10.84-8.28-17.21-8.28-1.04,0-2.1.08-3.18.22-6.44.86-12.63,4.18-18.62,7.39-13.05,6.99-21.65,10.53-30.84.67-.13-.12-.22-.19-.3-.26l-.17-.14s-.06-.05-.09-.08c-.13-.09-.28-.16-.42-.23l-.13-.07c-.23-.1-.44-.17-.66-.22h-.07c-2.11-.42-4.03,1.23-4.03,3.31v95.56l-.21.22c-.5.51-.92.98-1.28,1.45l-30.72,38.62c-.75.96-2.01,1.41-3.2,1.15-4.07-.94-9.9-1.3-17.33-1.06-7.48-.24-13.31.12-17.38,1.06-1.2.26-2.45-.19-3.2-1.15l-30.7-38.61c-1.42-1.83-3.16-3.34-5.17-4.49-2.18-1.21-4.37-1.81-6.48-1.81s-4.17.62-6.03,1.85l-.16.12c-1.5,1.18-2.82,2.62-3.88,4.24-2.4,3.66-2.93,7.73-1.48,11.47.48,1.21,1.15,2.35,1.98,3.36l43.58,54.84-.72,32.93c0,1.94,1.52,3.46,3.39,3.46h52.44c1.95-.04,3.43-1.6,3.39-3.46l-.71-32.93.16-.21,23.71-29.83v35.89c0,1.87,1.52,3.39,3.39,3.39s3.39-1.52,3.39-3.39v-44.42l12.93-16.27c.84-1.02,1.51-2.16,2-3.37,1.44-3.72.91-7.8-1.48-11.46-1.07-1.63-2.38-3.06-3.91-4.27l-.15-.1c-2.52-1.69-5.46-2.24-8.48-1.58l-.91.19v-34.19l1.11.62c3.23,1.8,6.57,2.67,10.22,2.67,1.07,0,2.14-.07,3.2-.22,6.43-.86,12.61-4.17,18.6-7.38,13.06-7,21.65-10.54,30.85-.68.64.68,1.54,1.08,2.48,1.08s1.76-.36,2.4-1c.64-.63.99-1.49.99-2.39v-49.9c0-.86-.32-1.68-.91-2.31ZM197.41,229.26l-29.94,37.68c-.49.62-.75,1.39-.74,2.18l.68,30.69h-45.52l.67-30.69c.01-.79-.25-1.56-.74-2.18l-44.32-55.78c-.38-.45-.71-.96-.96-1.52-1.53-3.92,2.22-7.24,2.99-7.87,1.52-.97,3.3-.87,5.35.27,1.25.73,2.32,1.67,3.2,2.81l30.71,38.62c2.38,2.99,6.32,4.38,10.04,3.53,3.46-.8,8.9-1.1,15.7-.88h.25c6.74-.22,12.17.09,15.68.88,3.72.85,7.66-.54,10.04-3.53l26.91-33.83v19.62ZM204.59,201.96c1.98-1.05,3.7-1.13,5.1-.24l.07.05c.77.63,4.53,3.94,3.02,7.79-.28.63-.6,1.15-1,1.61l-7.59,9.56v-18.56l.4-.21ZM267.26,145.97l-1.12-.62c-4.13-2.3-8.51-3.1-13.4-2.45-6.43.86-12.63,4.18-18.62,7.39-7.36,3.94-13.25,6.78-18.63,6.78-3.83,0-7.41-1.44-11.07-4.95l-.23-.22v-41.2l1.11.62c4.13,2.3,8.52,3.09,13.4,2.44,6.43-.86,12.63-4.17,18.62-7.38,12.62-6.76,20.91-10.26,29.71-1.84l.23.22v41.21Z"/>
</svg>