<?xml version="1.0" encoding="UTF-8"?>
<svg id="Layer_1" data-name="Layer 1" xmlns="http://www.w3.org/2000/svg" viewBox="0 0 360 360">
  <path d="M254.55,272.06l-16.43-13.69v-19.02c0-.1,0-.19-.01-.29-.1-1.03-2.2-20.58-13.11-28.47,2.67-2.14,4.38-5.42,4.38-9.1,0-6.42-5.23-11.65-11.65-11.65-5.26,0-9.72,3.5-11.16,8.29l-14.58-2.43c-1.58-.26-3.09.81-3.36,2.4-.26,1.59.81,3.09,2.4,3.36l15.32,2.55c.23,1.05.6,2.04,1.09,2.97-10.66-.98-19.33-3.75-22.4-4.84l9.36-93.57c.16-1.6-1.01-3.03-2.61-3.19-1.59-.16-3.03,1.01-3.19,2.61l-.31,3.09c-17.03-3.28-23.55-.66-30.43,2.11-4.68,1.88-9.53,3.83-18.8,3.83-8.72,0-19.55-2.79-19.66-2.82-1.49-.39-3.02.44-3.5,1.89l-11.65,34.96c-.46,1.38.16,2.88,1.46,3.52.5.25,12.44,6.13,27.52,6.13,12.74,0,19.87-3.38,25.07-5.86,5.91-2.81,9.18-4.35,17.33-.28,1.44.71,3.19.14,3.9-1.3.72-1.44.13-3.19-1.3-3.9-10.69-5.35-16.13-2.77-22.43.23-5.23,2.48-11.14,5.29-22.57,5.29-9.99,0-18.64-2.93-22.61-4.52l9.96-29.9c3.96.89,11.65,2.37,18.47,2.37,10.41,0,16.02-2.26,20.97-4.25,6.39-2.58,11.94-4.79,27.67-1.69l-6.46,64.61c-1.86.92-15.83,7.73-28.15,11.8.34-1.09.52-2.26.52-3.47,0-6.42-5.23-11.65-11.65-11.65s-11.65,5.23-11.65,11.65c0,4.45,2.51,8.32,6.18,10.28-8.67,9.03-9.07,28.12-9.1,30.33l-2.85,25.61-11.47,25.81c-.4.9-.32,1.94.22,2.77.53.83,1.46,1.33,2.45,1.33h17.48c1.18,0,2.24-.71,2.69-1.8.45-1.09.2-2.35-.63-3.18l-4.14-4.14,9.1-13.66c1.12-1.68,1.71-3.64,1.71-5.65v-3.62c0-1.61-1.3-2.91-2.91-2.91s-2.91,1.3-2.91,2.91v3.62c0,.87-.25,1.7-.74,2.43l-10.43,15.64c-.77,1.15-.62,2.69.36,3.67l.85.85h-5.96l9.83-22.12c.12-.28.2-.57.23-.86l2.91-26.22c.01-.1.01-.22.01-.32,0-7.44,2.21-27.19,12.22-29.19,8.79-1.76,20.44-6.5,28.64-10.15-9.83,10.63-24.23,16.15-24.41,16.22-1,.38-1.71,1.26-1.86,2.32l-2.91,20.39c-.09.58.01,1.17.27,1.7l9.5,19.31c.26.52.41,1.09.44,1.68l1.41,24.51c.04.71.34,1.38.84,1.89l.85.85h-4.89l-2.49-24.91c-.04-.48-.21-.93-.48-1.33l-8.9-13.25c-.9-1.34-2.71-1.7-4.04-.79-1.34.9-1.7,2.71-.79,4.04l8.49,12.65,2.68,26.8c.15,1.49,1.4,2.62,2.9,2.62h14.57c1.18,0,2.24-.71,2.69-1.8.45-1.09.2-2.35-.63-3.18l-5.04-5.04-1.35-23.39c-.08-1.37-.42-2.69-1.03-3.92l-9.1-18.5,2.55-17.84c4.59-1.95,17.74-8.2,26.7-18.96l-8.94,89.44c-.16,1.6,1.01,3.03,2.61,3.19.1.01.2.01.29.01,1.48,0,2.75-1.12,2.9-2.62l7.12-71.19c6.29,8.54,13.57,9.93,23.7,11.89.63.12,1.27.25,1.92.37l4.78,14.33-11.84,14.2c-1.53,1.83-2.36,4.15-2.36,6.53v16.55l-4.97,4.97c-.83.83-1.08,2.08-.63,3.18.45,1.09,1.51,1.8,2.69,1.8h14.57c1.61,0,2.91-1.3,2.91-2.91v-19.18l4.97-4.97c1.14-1.14,1.14-2.99,0-4.12s-2.99-1.14-4.12,0l-5.83,5.83c-.55.55-.85,1.29-.85,2.06v17.48h-4.62l.85-.85c.55-.55.85-1.29.85-2.06v-17.76c0-1.02.36-2.01,1.01-2.8l12.88-15.45c.64-.77.84-1.83.52-2.78l-5.83-17.48c-.34-.99-1.17-1.73-2.19-1.94-1.26-.25-2.47-.48-3.63-.71-9.34-1.79-14.74-2.83-19.46-8.72,6.1,1.66,15.25,3.55,25.43,3.55,14.1,0,17.25,24.37,17.48,26.38v20.23c0,.86.38,1.69,1.05,2.24l14.83,12.35c-1.3,1.01-3.07,2.24-5.21,3.41l.84-2.52c.44-1.3-.09-2.72-1.27-3.42l-11.8-7.08c-1.05-.63-1.79-1.69-2.04-2.89l-2.28-11.4c-.32-1.57-1.85-2.6-3.42-2.29-1.57.32-2.6,1.85-2.29,3.42l2.28,11.4c.56,2.81,2.29,5.27,4.75,6.74l9.8,5.88-2.17,6.53c-.35,1.05-.07,2.2.7,2.99.55.55,1.3.85,2.06.85.31,0,.62-.04.92-.15,9.29-3.1,15.45-9.18,15.7-9.44.58-.58.89-1.37.84-2.19-.04-.82-.42-1.58-1.05-2.1l.02-.02ZM141.99,184c3.21,0,5.83,2.61,5.83,5.83s-2.61,5.83-5.83,5.83-5.83-2.61-5.83-5.83,2.61-5.83,5.83-5.83ZM217.73,195.65c3.21,0,5.83,2.61,5.83,5.83s-2.61,5.83-5.83,5.83-5.83-2.61-5.83-5.83,2.61-5.83,5.83-5.83Z"/>
</svg>