<?xml version="1.0" encoding="UTF-8"?>
<svg id="Layer_1" data-name="Layer 1" xmlns="http://www.w3.org/2000/svg" viewBox="0 0 360 360">
  <path d="M251.24,146.06v-4.18c0-3.72-3.03-6.75-6.75-6.75s-6.75,3.03-6.75,6.75v4.18c-2.42.83-4.13,2.93-4.43,5.47-5.19,1.2-8.94,5.88-8.94,11.23v25.48c0,1.48,1.2,2.68,2.68,2.68s2.68-1.2,2.68-2.68v-25.48c0-2.35,1.38-4.52,3.5-5.54v42.39c0,1.1.7,2.07,1.74,2.46v46.81l.02.1c.01.34.07.63.19.94l6.82,16.99c.41,1.02,1.38,1.68,2.49,1.68s2.08-.66,2.49-1.68l6.84-17.04c.11-.26.16-.55.17-.84l.03-.1v-46.86c1.04-.39,1.74-1.37,1.74-2.46v-47.28c0-2.86-1.8-5.35-4.51-6.27ZM247.37,251.57l-2.88,7.17-2.88-7.17h5.76ZM248.65,202.29v43.91h-8.32v-43.91h8.32ZM243.1,145.68v-3.79c0-.77.62-1.39,1.39-1.39s1.39.62,1.39,1.39v3.79h-2.78ZM250.39,152.34v44.6h-11.8v-44.6c0-.72.58-1.3,1.3-1.3h9.2c.72,0,1.3.58,1.3,1.3Z"/>
  <path d="M212.84,180.66l-4.3-4.77v-47.28c0-1.48-1.2-2.68-2.68-2.68h-80.77c-1.48,0-2.68,1.2-2.68,2.68v47.28l-14.18,15.75c-.28.31-.69,1.04-.69,1.79v72.5c0,1.48,1.2,2.68,2.68,2.68h110.52c1.48,0,2.68-1.2,2.68-2.68v-72.5c0-.6-.23-1.22-.64-1.7-.33-.4-5.66-6.31-9.94-11.06ZM114.14,193.08l8.27-9.18v15.59l-8.27-6.41ZM208.54,199.49v-15.6l8.27,9.19-8.27,6.41ZM165.48,232.85l-37.71-29.22v-72.35h75.42v72.35l-37.7,29.21ZM218.06,198.89v64.36h-105.16v-64.36l50.94,39.47c.97.75,2.32.75,3.28,0l50.94-39.47Z"/>
  <path d="M193.42,143.16h-55.87c-1.48,0-2.68,1.2-2.68,2.68s1.2,2.68,2.68,2.68h55.87c1.48,0,2.68-1.2,2.68-2.68s-1.2-2.68-2.68-2.68Z"/>
  <path d="M193.42,166.38h-55.87c-1.48,0-2.68,1.2-2.68,2.68s1.2,2.68,2.68,2.68h55.87c1.48,0,2.68-1.2,2.68-2.68s-1.2-2.68-2.68-2.68Z"/>
  <path d="M193.42,189.59h-55.87c-1.48,0-2.68,1.2-2.68,2.68s1.2,2.68,2.68,2.68h55.87c1.48,0,2.68-1.2,2.68-2.68s-1.2-2.68-2.68-2.68Z"/>
  <path d="M119.53,245.66h15.74c1.48,0,2.68-1.2,2.68-2.68s-1.2-2.68-2.68-2.68h-15.74c-1.48,0-2.68,1.2-2.68,2.68s1.2,2.68,2.68,2.68Z"/>
  <path d="M135.43,251.86h-15.74c-1.48,0-2.68,1.2-2.68,2.68s1.2,2.68,2.68,2.68h15.74c1.48,0,2.68-1.2,2.68-2.68s-1.2-2.68-2.68-2.68Z"/>
  <path d="M195.53,245.66h15.74c1.48,0,2.68-1.2,2.68-2.68s-1.2-2.68-2.68-2.68h-15.74c-1.48,0-2.68,1.2-2.68,2.68s1.2,2.68,2.68,2.68Z"/>
  <path d="M195.53,257.22h15.74c1.48,0,2.68-1.2,2.68-2.68s-1.2-2.68-2.68-2.68h-15.74c-1.48,0-2.68,1.2-2.68,2.68s1.2,2.68,2.68,2.68Z"/>
</svg>