<?xml version="1.0" encoding="UTF-8"?>
<svg id="Layer_1" data-name="Layer 1" xmlns="http://www.w3.org/2000/svg" viewBox="0 0 360 360">
  <defs>
    <style>
      .cls-1 {
        fill-rule: evenodd;
      }
    </style>
  </defs>
  <path class="cls-1" d="M185.29,157.65c-2.22,0-4.03-1.81-4.03-4.03s1.81-4.03,4.03-4.03,4.05,1.81,4.05,4.03-1.83,4.03-4.05,4.03h0ZM194.41,183.96c-19.6,3.43-33.89,5.92-58.17-3.49v-17c12.43,4.58,22.51,6.15,31.93,6.15s17.74-1.5,27.24-3.15c10.94-1.92,23.29-4.07,39.43-4.31v17.4c-16.65.23-29.25,2.44-40.44,4.4h0ZM124.72,231.13v-113.69c.93.17,1.87.27,2.86.27s1.93-.1,2.86-.27v113.69h-5.72ZM147.93,240.78v3.8h-40.7v-3.8c0-2.12,1.72-3.84,3.84-3.84h33.01c2.12,0,3.85,1.72,3.85,3.84h0ZM127.58,92.24c5.42,0,9.83,4.41,9.83,9.83s-4.41,9.83-9.83,9.83-9.83-4.41-9.83-9.83,4.4-9.83,9.83-9.83h0ZM195.15,143.31c.08-.01.17-.03.26-.04,10.94-1.91,23.29-4.07,39.43-4.31v17.4c-14.89.21-26.54,1.99-36.84,3.77,1-1.95,1.57-4.16,1.57-6.5,0-4.05-1.69-7.71-4.41-10.31h0ZM176.83,153.62c0,4.67,3.81,8.47,8.46,8.47s8.48-3.8,8.48-8.47-3.81-8.47-8.48-8.47-8.46,3.8-8.46,8.47h0ZM136.24,140.26v17c15.75,6.1,27.29,7.2,38.81,6.28-2.5-2.57-4.03-6.07-4.03-9.92,0-2.68.75-5.19,2.04-7.34-1.61.09-3.24.14-4.89.14-9.42,0-19.5-1.57-31.93-6.15h0ZM195.41,120.05c-19.22,3.36-34.61,6.05-59.17-3v17c24.27,9.41,38.57,6.91,58.17,3.49,11.19-1.96,23.79-4.16,40.44-4.39v-17.4c-16.15.23-28.49,2.39-39.43,4.31h0ZM237.75,109.91c-18.09,0-31.52,2.35-43.34,4.41-18.69,3.27-32.55,5.69-54.84-2.24,2.27-2.72,3.64-6.21,3.64-10.01,0-8.62-7.02-15.64-15.63-15.64s-15.65,7.02-15.65,15.64c0,5.42,2.77,10.2,6.97,13.01v116.05h-7.84c-5.33,0-9.65,4.33-9.65,9.65v6.71c0,1.6,1.29,2.91,2.91,2.91h46.49c1.61,0,2.91-1.3,2.91-2.91v-6.71c0-5.32-4.32-9.65-9.65-9.65h-7.84v-44.45c12.43,4.58,22.51,6.15,31.93,6.15s17.74-1.5,27.24-3.16c11.6-2.03,24.75-4.33,42.34-4.33,1.61,0,2.91-1.3,2.91-2.91v-69.63c0-1.6-1.29-2.91-2.91-2.91Z"/>
</svg>