<?xml version="1.0" encoding="UTF-8"?>
<svg id="Layer_1" data-name="Layer 1" xmlns="http://www.w3.org/2000/svg" viewBox="0 0 360 360">
  <defs>
    <style>
      .cls-1 {
        fill-rule: evenodd;
      }
    </style>
  </defs>
  <path class="cls-1" d="M141.45,140.65v24.45c0,1.95,1.58,3.53,3.53,3.53h61.07c1.95,0,3.53-1.58,3.53-3.53v-24.45c0-1.95-1.58-3.53-3.53-3.53h-61.07c-1.95,0-3.53,1.58-3.53,3.53ZM189.85,221.87h16.2c1.95,0,3.53-1.58,3.53-3.53v-24.45c0-1.95-1.58-3.53-3.53-3.53h-16.2c-1.95,0-3.53,1.58-3.53,3.53v24.45c0,1.95,1.58,3.53,3.53,3.53ZM100.12,221.87h16.2c1.95,0,3.53-1.58,3.53-3.53v-77.69c0-1.95-1.58-3.53-3.53-3.53h-16.2c-1.95,0-3.53,1.58-3.53,3.53v77.69c0,1.95,1.58,3.53,3.53,3.53ZM144.98,221.87h16.2c1.95,0,3.53-1.58,3.53-3.53v-24.45c0-1.95-1.58-3.53-3.53-3.53h-16.2c-1.95,0-3.53,1.58-3.53,3.53v24.45c0,1.95,1.58,3.53,3.53,3.53ZM134.39,140.65c0-5.85,4.74-10.59,10.59-10.59h61.07c5.85,0,10.59,4.74,10.59,10.59v24.45c0,5.85-4.74,10.59-10.59,10.59h-61.07c-5.85,0-10.59-4.74-10.59-10.59v-24.45ZM189.85,228.93c-5.85,0-10.59-4.74-10.59-10.59v-24.45c0-5.85,4.74-10.59,10.59-10.59h16.2c5.85,0,10.59,4.74,10.59,10.59v24.45c0,5.85-4.74,10.59-10.59,10.59h-16.2ZM100.12,228.93c-5.85,0-10.59-4.74-10.59-10.59v-77.69c0-5.85,4.74-10.59,10.59-10.59h16.2c5.85,0,10.59,4.74,10.59,10.59v77.69c0,5.85-4.74,10.59-10.59,10.59h-16.2ZM144.98,228.93c-5.85,0-10.59-4.74-10.59-10.59v-24.45c0-5.85,4.74-10.59,10.59-10.59h16.2c5.85,0,10.59,4.74,10.59,10.59v24.45c0,5.85-4.74,10.59-10.59,10.59h-16.2Z"/>
</svg>