<?xml version="1.0" encoding="UTF-8"?>
<svg id="Layer_1" data-name="Layer 1" xmlns="http://www.w3.org/2000/svg" viewBox="0 0 360 360">
  <defs>
    <style>
      .cls-1 {
        fill-rule: evenodd;
      }
    </style>
  </defs>
  <path class="cls-1" d="M253.57,243.5c0,1.05-.87,1.94-1.95,1.94h-15.37c-1.04,0-1.92-.89-1.92-1.94v-47.82c0-1.05.87-1.94,1.92-1.94h15.37c1.07,0,1.95.89,1.95,1.94v47.82h0ZM223.14,260.43c-1.66,1.65-4.34,1.65-6.01,0-2.11-2.1-5.7-.59-5.7,2.37,0,2.53,2.2,2.37,2.2,5.36,0,3.81-4.55,5.62-7.19,2.99-2.13-2.12-5.73-.57-5.73,2.37,0,.86.34,1.71.99,2.37,1.64,1.65,1.64,4.33,0,5.99-1.66,1.65-4.34,1.65-6.01,0-2.12-2.12-5.7-.57-5.7,2.36,0,.86.31,1.71.99,2.37,1.64,1.65,1.64,4.33,0,5.98-1.58,1.57-3.92.9-5.61.05,6.68-6.82,1.97-18.4-7.62-18.57-.06-5.87-4.83-10.62-10.69-10.72-.12-5.91-4.83-10.62-10.75-10.71-.1-9.55-11.79-14.37-18.61-7.53l-7.19,7.19c-3.53-3.24-6.91-6.56-10.15-9.9v-43.75h30.4c3.53,0,6.49,1.01,9.31,3.16,3.69,2.83,7.45,5.61,11.17,8.34l-11.54,14.91c-3.1,4.02-2.82,9.62.68,13.31,6.02,6.32,12.2,13.64,18.42,13.64,5.13,0,9.23-5.07,9.28-9.93.03-3.16-1.35-6.45-4.29-9.98l2.85-2.44,13.12,2.49,19.32,18.86c.06.05.11.1.17.15h0s4.06,3.49,4.06,3.49c1.75,1.5,1.3,4.3-.17,5.8h0ZM169.07,299.46l11.51-11.49c1.64-1.65,1.64-4.33,0-5.98-1.66-1.64-4.36-1.63-6.01,0l-11.48,11.49c-1.64,1.65-1.64,4.33,0,5.99,1.66,1.65,4.34,1.64,5.98,0h0ZM152.37,282.76c-1.64,1.65-1.64,4.34,0,5.98,1.66,1.65,4.34,1.65,5.98,0l11.51-11.48c1.64-1.65,1.64-4.34,0-5.99-1.63-1.63-4.33-1.65-5.98,0l-11.51,11.49h0ZM141.65,272.04c-1.64,1.65-1.64,4.33,0,5.98,1.66,1.64,4.34,1.64,5.98,0l11.51-11.49c1.64-1.65,1.64-4.33,0-5.98-1.66-1.64-4.33-1.66-5.98,0l-11.51,11.49h0ZM130.94,261.32c-1.64,1.65-1.64,4.34,0,5.98,1.66,1.65,4.34,1.65,5.98,0l11.51-11.49c1.64-1.65,1.64-4.33,0-5.98-1.63-1.65-4.32-1.66-5.98,0l-11.51,11.48h0ZM113.68,243.5c0,1.05-.9,1.94-1.95,1.94h-15.37c-1.04,0-1.95-.89-1.95-1.94v-47.82c0-1.05.9-1.94,1.95-1.94h15.37c1.04,0,1.95.89,1.95,1.94v47.82h0ZM113.48,156.85c0-.43.37-.79.79-.79h119.45c.45,0,.79.37.79.79v4.68h-121.03v-4.68h0ZM174.01,129.28c14.02,0,26.82,7.9,33.25,20.08h-66.53c6.43-12.18,19.26-20.08,33.28-20.08h0ZM177.33,94.77l14.98,5.96-14.98,5.95v-11.91h0ZM228.72,191.51c1.18-2.17,3.3-3.76,5.78-4.28v-19.01h-18.84v8.82c0,1.85-1.49,3.35-3.36,3.35s-3.33-1.5-3.33-3.35v-8.82h-18.87v8.82c0,1.85-1.49,3.35-3.33,3.35s-3.36-1.5-3.36-3.35v-8.82h-18.84v8.82c0,1.85-1.52,3.35-3.36,3.35s-3.36-1.5-3.36-3.35v-8.82h-18.84v8.82c0,1.85-1.49,3.35-3.36,3.35s-3.36-1.5-3.36-3.35v-8.82h-18.84v19.01c2.68.55,4.88,2.34,6.04,4.72h31.25c5.02,0,9.39,1.48,13.37,4.54,3.69,2.82,7.47,5.62,11.2,8.36l6.49-8.41c3.36-4.34,9.76-4.43,13.96-4.48l32.94-.45h0ZM176.63,234.17c-1.36-1.38-1.28-3.64.2-4.91l6.68-5.74c.79-.66,1.81-.94,2.82-.74l15.65,2.97c.65.12,1.24.43,1.72.89l18.05,17.61c2.09-1.47,4.06-2.74,5.87-3.9v-42.13l-31.73.43c-2.76.04-7.39.1-8.77,1.88l-22.11,28.61c-1.07,1.39-.99,3.33.23,4.61,4.09,4.31,10.17,11.09,13.26,11.53,1.58.23,2.91-2.05,2.91-3.3,0-1.38-.79-3.87-4.77-7.82h0ZM251.62,187.05h-10.41v-30.2c0-4.13-3.36-7.49-7.5-7.49h-19.04c-6.49-15.08-20.98-25.39-37.34-26.64v-8.84l25.27-10.04c2.81-1.12,2.81-5.1,0-6.22l-27.36-10.89c-2.19-.85-4.6.73-4.6,3.1v32.89c-16.33,1.25-30.83,11.56-37.34,26.64h-19.04c-4.12,0-7.47,3.36-7.47,7.49v30.2h-10.44c-4.77,0-8.63,3.87-8.63,8.63v47.82c0,4.76,3.86,8.64,8.63,8.64h15.37c2.43,0,4.65-1.02,6.21-2.65,2.54,2.55,5.16,5.08,7.87,7.56-6.19,6.92-1.42,18.01,7.93,18.17.12,5.88,4.8,10.61,10.72,10.71.12,5.91,4.83,10.61,10.72,10.72.2,9.7,11.92,14.27,18.64,7.53l6.66-6.65c4.98,3.19,10.98,4.03,15.23-.23,2.09-2.08,3.16-4.79,3.22-7.52,5.88-.11,10.6-4.82,10.72-10.72,5.87-.11,10.6-4.86,10.72-10.72,10.04-.19,14.37-12.82,7.33-18.82l-.82-.7c.62-.42,1.21-.82,1.83-1.21,1.44,2.68,4.29,4.51,7.56,4.51h15.37c4.77,0,8.66-3.87,8.66-8.64v-47.82c0-4.76-3.89-8.63-8.66-8.63Z"/>
</svg>