<?xml version="1.0" encoding="UTF-8"?>
<svg id="Layer_1" data-name="Layer 1" xmlns="http://www.w3.org/2000/svg" viewBox="0 0 360 360">
  <path d="M133.54,222.64c2.66-3.17,4.29-7.37,4.29-11.98v-11.92c0-9.86-7.4-17.88-16.49-17.88s-16.49,8.02-16.49,17.88v11.92c0,4.61,1.63,8.81,4.29,11.98-14.6.69-26.28,13.74-26.28,29.73v20.86c0,1.64,1.23,2.98,2.75,2.98h71.47c1.52,0,2.75-1.33,2.75-2.98v-20.86c0-15.99-11.69-29.04-26.28-29.73ZM127.19,228.53l-5.86,9.53-5.86-9.53h11.72ZM110.34,198.74c0-6.57,4.93-11.92,11-11.92s11,5.35,11,11.92v11.92c0,6.57-4.93,11.92-11,11.92s-11-5.35-11-11.92v-11.92ZM154.32,270.25h-11v-17.88h-5.5v17.88h-32.99v-17.88h-5.5v17.88h-11v-17.88c0-12.62,9.11-22.96,20.57-23.76l10.13,16.47c.51.83,1.37,1.33,2.29,1.33s1.78-.5,2.29-1.33l10.13-16.47c11.46.8,20.57,11.13,20.57,23.76v17.88Z"/>
  <path d="M227,222.64c2.66-3.17,4.29-7.37,4.29-11.98v-11.92c0-9.86-7.4-17.88-16.49-17.88s-16.49,8.02-16.49,17.88v11.92c0,4.61,1.63,8.81,4.29,11.98-14.6.69-26.28,13.74-26.28,29.73v20.86c0,1.64,1.23,2.98,2.75,2.98h71.47c1.52,0,2.75-1.33,2.75-2.98v-20.86c0-15.99-11.69-29.04-26.28-29.73ZM220.66,228.53l-5.86,9.53-5.86-9.53h11.72ZM203.8,198.74c0-6.57,4.93-11.92,11-11.92s11,5.35,11,11.92v11.92c0,6.57-4.93,11.92-11,11.92s-11-5.35-11-11.92v-11.92ZM247.79,270.25h-11v-17.88h-5.5v17.88h-32.99v-17.88h-5.5v17.88h-11v-17.88c0-12.62,9.11-22.96,20.57-23.76l10.13,16.47c.51.83,1.37,1.33,2.29,1.33s1.78-.5,2.29-1.33l10.13-16.47c11.46.8,20.57,11.13,20.57,23.76v17.88Z"/>
  <path d="M112.03,174.68c1.03.46,2.21.21,3-.65l15.69-17h74.7l15.69,17c.53.57,1.23.87,1.94.87.35,0,.71-.07,1.05-.23,1.03-.46,1.7-1.55,1.7-2.75v-77.47c0-1.64-1.23-2.98-2.75-2.98h-109.96c-1.52,0-2.75,1.33-2.75,2.98v77.47c0,1.2.67,2.29,1.7,2.75ZM115.84,97.43h104.46v67.3l-11.8-12.79c-.51-.56-1.22-.87-1.94-.87h-76.97c-.73,0-1.43.31-1.94.87l-11.8,12.79v-67.3Z"/>
  <path d="M140.58,133.19c4.55,0,8.25-4.01,8.25-8.94s-3.7-8.94-8.25-8.94-8.25,4.01-8.25,8.94,3.7,8.94,8.25,8.94ZM140.58,121.27c1.51,0,2.75,1.34,2.75,2.98s-1.23,2.98-2.75,2.98-2.75-1.34-2.75-2.98,1.23-2.98,2.75-2.98Z"/>
  <path d="M168.07,133.19c4.55,0,8.25-4.01,8.25-8.94s-3.7-8.94-8.25-8.94-8.25,4.01-8.25,8.94,3.7,8.94,8.25,8.94ZM168.07,121.27c1.51,0,2.75,1.34,2.75,2.98s-1.23,2.98-2.75,2.98-2.75-1.34-2.75-2.98,1.23-2.98,2.75-2.98Z"/>
  <path d="M195.55,133.19c.18,0,.37,0,.56-.02,2.2-.16,4.21-1.23,5.66-3.03,1.45-1.8,2.17-4.1,2.03-6.48-.15-2.38-1.14-4.56-2.8-6.13-1.66-1.57-3.79-2.34-5.98-2.2-2.2.16-4.21,1.23-5.66,3.03-1.45,1.8-2.17,4.1-2.03,6.48.15,2.38,1.14,4.56,2.8,6.13,1.52,1.44,3.43,2.21,5.42,2.21ZM193.49,122.29c.48-.6,1.15-.96,1.89-1.01.06,0,.12,0,.18,0,.67,0,1.3.26,1.81.74.55.52.88,1.25.93,2.04s-.19,1.56-.68,2.16c-.48.6-1.15.96-1.89,1.01-.71.06-1.44-.21-1.99-.73-.55-.52-.88-1.25-.93-2.04s.2-1.56.68-2.16Z"/>
</svg>