<?xml version="1.0" encoding="UTF-8"?>
<svg id="Layer_1" data-name="Layer 1" xmlns="http://www.w3.org/2000/svg" viewBox="0 0 360 360">
  <path d="M251.37,166.03c-.09-.73-.44-1.38-.96-1.85-.53-.48-1.21-.78-1.95-.8h-.6c-1.97,0-7.25.14-13.76,1.51-.99.2-1.81.89-2.18,1.84l-2.45,6.16-5.01-3.66c-.87-.64-2.03-.76-3.02-.32-.19.09-.37.18-.56.28-.15.08-.31.16-.47.24l-.71.35v-18.34c0-16.98-13.82-30.8-30.8-30.8h-95.34c-.07.03-.14.05-.24.06-1.95.01-3.7.18-5.37.52-10.31,2.06-18.69,10.37-20.87,20.67-2.04,9.64,1.03,19.3,8.21,25.85,2.9,2.64,6.59,4.09,10.41,4.09.21,0,.42-.02.63-.05.16-.02.31-.04.46-.05h.1s.05.01.05.01h27.68v96.78c0,1.66,1.36,3.01,3.02,3.01h99.04c1.66,0,3.02-1.35,3.02-3.01v-47.99l.34-.11c6.9-2.19,12.71-5.36,17.26-9.43.63-.56,1-1.36,1.01-2.2l.15-7.99,3.23,1.21c1.41.52,3.01-.09,3.71-1.41,8.22-15.34,6.07-33.79,5.97-34.57ZM114.62,165.7h-16.86l.61-.8c2.26-3.01,3.75-6.52,4.31-10.18l.07-.42h11.87v11.4ZM114.62,148.26h-14.69c-1.67,0-3.02,1.36-3.02,3.02,0,4.64-1.96,9.1-5.38,12.24-1.64,1.51-3.72,2.26-5.83,2.26-2.24,0-4.51-.84-6.35-2.51-5.57-5.08-7.95-12.61-6.36-20.13,1.68-7.97,8.17-14.4,16.14-16,6.33-1.27,12.93.35,17.79,4.32,4.89,4.01,7.7,9.93,7.71,16.23v.57ZM213.66,265.5h-93v-117.72c.02-7.72-3.3-15.08-9.08-20.23l-.98-.87h78.3c13.65,0,24.76,11.11,24.76,24.76v21.9l-.21.15c-2.27,1.62-4.28,3.39-5.98,5.26-2.26,2.47-4.23,5.36-5.87,8.6-.41.82-.43,1.76-.06,2.59l2.93,6.53-6.1,3.39c-.8.44-1.35,1.21-1.51,2.11-1.32,7.49-1.16,14.02-.94,17.24v.19s-.1.15-.1.15c-1.18,1.56-2.33,3.23-3.53,5.09l-.2.31-.36-.1c-1.71-.49-3.16-.72-4.57-.72-9.21,0-16.71,7.5-16.71,16.71s7.5,16.72,16.71,16.72,16.71-7.5,16.71-16.72c0-4.9-2.21-9.56-6.08-12.78l-.34-.29.25-.37c.82-1.25,1.64-2.44,2.44-3.54l.14-.2h.25c2.26-.05,6.9-.31,12.53-1.44l.6-.12v43.4ZM197.84,240.84c0,5.89-4.79,10.68-10.68,10.68s-10.67-4.79-10.67-10.68,4.79-10.67,10.67-10.67,10.68,4.79,10.68,10.67ZM241.43,194.96l-.19.44-4.66-1.74c-.92-.34-1.94-.22-2.75.34-.81.54-1.3,1.45-1.32,2.43l-.21,10.9-.18.14c-7.75,6.27-17.95,8.69-25.15,9.61l-1.44.18,1.02-1.03c3.36-3.39,6.71-5.92,9.97-7.5,1.49-.72,2.12-2.53,1.39-4.03-.72-1.49-2.53-2.12-4.03-1.4-3.69,1.79-7.42,4.54-11.11,8.17l-.91.9.06-1.29c.12-2.27.32-4.37.62-6.41l.04-.24,7.24-4.03c1.38-.76,1.94-2.43,1.29-3.87l-3.46-7.71.13-.22c1.21-2.15,2.61-4.1,4.16-5.78,2.66-2.93,6.07-5.46,10.13-7.52l.27-.14,6.71,4.91c.74.55,1.72.73,2.62.47.9-.26,1.62-.91,1.97-1.79l3.28-8.27.28-.05c3.26-.58,6.08-.82,7.87-.93l.51-.03.02.51c.19,5.32-.1,15.63-4.17,24.98Z"/>
  <path d="M196.42,149.9c0,1.67-1.35,3.02-3.02,3.02h-52.48c-1.66,0-3.01-1.35-3.01-3.02s1.35-3.02,3.01-3.02h52.48c1.67,0,3.02,1.36,3.02,3.02Z"/>
  <path d="M196.42,170.93c0,1.66-1.35,3.02-3.02,3.02h-52.48c-1.66,0-3.01-1.36-3.01-3.02s1.35-3.02,3.01-3.02h52.48c1.67,0,3.02,1.35,3.02,3.02Z"/>
  <path d="M196.42,191.95c0,1.67-1.35,3.02-3.02,3.02h-52.48c-1.66,0-3.01-1.35-3.01-3.02s1.35-3.02,3.01-3.02h52.48c1.67,0,3.02,1.36,3.02,3.02Z"/>
</svg>