<?xml version="1.0" encoding="UTF-8"?>
<svg id="Layer_1" data-name="Layer 1" xmlns="http://www.w3.org/2000/svg" viewBox="0 0 360 360">
  <path d="M171.66,159.88h1.87c1.33,0,2.41-1.08,2.41-2.41s-1.08-2.41-2.41-2.41h-1.87c-1.33,0-2.41,1.08-2.41,2.41s1.08,2.41,2.41,2.41Z"/>
  <path d="M138.99,159.89h24.97c1.33,0,2.41-1.08,2.41-2.41s-1.08-2.41-2.41-2.41h-24.97c-1.33,0-2.41,1.08-2.41,2.41s1.08,2.41,2.41,2.41Z"/>
  <path d="M136.58,183.47c0,1.33,1.08,2.41,2.41,2.41h72.98c1.33,0,2.41-1.08,2.41-2.41s-1.08-2.41-2.41-2.41h-72.98c-1.33,0-2.41,1.08-2.41,2.41Z"/>
  <path d="M153.02,168.05c-1.33,0-2.41,1.08-2.41,2.41s1.08,2.41,2.41,2.41h47.42c1.33,0,2.41-1.08,2.41-2.41s-1.08-2.41-2.41-2.41h-47.42Z"/>
  <path d="M267.13,141.95c-.32-.56-.84-.96-1.46-1.12l-18.92-5.07v-24.71c0-1.33-1.08-2.41-2.41-2.41h-104.68c-1.33,0-2.41,1.08-2.41,2.41v12.28h-14.1c-1.33,0-2.41,1.08-2.41,2.41v141.42c0,1.33,1.08,2.41,2.41,2.41h43.02l60.68,16.26c.21.05.41.08.62.08.42,0,.83-.11,1.21-.33.56-.32.96-.84,1.12-1.46l6.08-22.71h8.47c1.33,0,2.41-1.08,2.41-2.41v-38.21l20.63-77.01c.16-.62.08-1.27-.25-1.83ZM241.91,238.82v17.77h-4.76l4.76-17.77ZM262.08,144.87l-31.86,118.93v-127.46l31.86,8.54ZM227.81,269.58c.32,0,.63-.06.91-.18l-2.99,11.16-40.96-10.98h43.03ZM204.03,147.26c1.53,1.66,3.57,2.58,5.74,2.58s4.21-.92,5.74-2.58c1.48-1.6,2.29-3.71,2.29-5.95v-6.07c0-1.33-1.08-2.41-2.41-2.41s-2.41,1.08-2.41,2.41v6.07c0,1.02-.36,1.97-1.01,2.68-1.19,1.3-3.18,1.31-4.39,0-.65-.71-1.01-1.67-1.01-2.68v-13.16h18.84v136.58h-99.85v-136.58h76.19v13.16c0,2.23.81,4.34,2.29,5.95ZM181.71,123.33h-20.2l1.35-5.05,18.84,5.05ZM227.8,123.33h-10.21c-.33-1.52-1.05-2.9-2.08-4.02-1.53-1.66-3.57-2.58-5.74-2.58s-4.21.91-5.74,2.58c-1.03,1.12-1.75,2.51-2.08,4.02h-1.6l-36.82-9.86h78.38v21.01l-11.69-3.13v-5.59c0-1.33-1.08-2.41-2.41-2.41ZM159.62,113.46c-.38.31-.66.73-.8,1.24l-2.31,8.62h-14.46v-9.86h17.57ZM207.57,122.57c1.19-1.3,3.17-1.31,4.4,0,.21.23.39.48.54.76h-5.47c.15-.28.33-.54.54-.76Z"/>
  <path d="M138.99,172.89h6.66c1.33,0,2.41-1.08,2.41-2.41s-1.08-2.41-2.41-2.41h-6.66c-1.33,0-2.41,1.08-2.41,2.41s1.08,2.41,2.41,2.41Z"/>
  <path d="M211.97,194.04h-72.98c-1.33,0-2.41,1.08-2.41,2.41s1.08,2.41,2.41,2.41h72.98c1.33,0,2.41-1.08,2.41-2.41s-1.08-2.41-2.41-2.41Z"/>
  <path d="M211.97,207.04h-72.98c-1.33,0-2.41,1.08-2.41,2.41s1.08,2.41,2.41,2.41h72.98c1.33,0,2.41-1.08,2.41-2.41s-1.08-2.41-2.41-2.41Z"/>
  <path d="M211.97,220.03h-72.98c-1.33,0-2.41,1.08-2.41,2.41s1.08,2.41,2.41,2.41h72.98c1.33,0,2.41-1.08,2.41-2.41s-1.08-2.41-2.41-2.41Z"/>
  <path d="M199.56,233.01h-4.19c-1.33,0-2.41,1.08-2.41,2.41s1.08,2.41,2.41,2.41h4.19c1.33,0,2.41-1.08,2.41-2.41s-1.08-2.41-2.41-2.41Z"/>
  <path d="M186.64,233.02h-47.65c-1.33,0-2.41,1.08-2.41,2.41s1.08,2.41,2.41,2.41h47.65c1.33,0,2.41-1.08,2.41-2.41s-1.08-2.41-2.41-2.41Z"/>
</svg>