<?xml version="1.0" encoding="UTF-8"?>
<svg id="Layer_1" data-name="Layer 1" xmlns="http://www.w3.org/2000/svg" viewBox="0 0 360 360">
  <path d="M63.03,199.7c-2.28,0-3.41-1.17-3.41-3.52v-31.04c0-2.31,1.15-3.47,3.47-3.47h12.85c4.12,0,7.31,1.03,9.55,3.09,2.24,2.06,3.36,4.94,3.36,8.64s-1.12,6.59-3.36,8.67c-2.24,2.08-5.42,3.12-9.55,3.12h-9.49v10.99c0,2.35-1.14,3.52-3.41,3.52ZM66.44,179.81h8.43c4.91,0,7.36-2.13,7.36-6.4s-2.45-6.35-7.36-6.35h-8.43v12.75Z"/>
  <path d="M96.63,199.7c-2.28,0-3.41-1.14-3.41-3.41v-20.16c0-2.24,1.08-3.36,3.25-3.36s3.25,1.12,3.25,3.36v1.65c1.28-3.06,4.02-4.76,8.21-5.12,1.53-.18,2.38.69,2.56,2.61.18,1.88-.75,2.93-2.77,3.15l-1.17.11c-4.37.43-6.56,2.67-6.56,6.72v11.04c0,2.28-1.12,3.41-3.36,3.41Z"/>
  <path d="M126.55,199.81c-2.95,0-5.49-.55-7.63-1.65-2.13-1.1-3.78-2.67-4.93-4.69-1.16-2.03-1.73-4.43-1.73-7.2s.56-5.07,1.68-7.09c1.12-2.03,2.67-3.62,4.64-4.77,1.97-1.16,4.22-1.73,6.75-1.73,3.7,0,6.62,1.17,8.77,3.52,2.15,2.35,3.23,5.55,3.23,9.6,0,1.32-.85,1.97-2.56,1.97h-16.11c.5,4.66,3.16,6.99,8,6.99.92,0,1.96-.12,3.12-.35,1.16-.23,2.25-.63,3.28-1.2.92-.53,1.71-.7,2.35-.51.64.2,1.09.58,1.36,1.15s.3,1.2.11,1.89c-.2.69-.7,1.29-1.52,1.79-1.25.78-2.68,1.36-4.29,1.73-1.62.37-3.12.56-4.51.56ZM125.59,177.2c-1.96,0-3.54.6-4.75,1.81-1.21,1.21-1.94,2.84-2.19,4.91h13.12c-.14-2.17-.74-3.83-1.79-4.99-1.05-1.16-2.52-1.73-4.4-1.73Z"/>
  <path d="M161.91,199.28c-1.96,0-2.93-.96-2.93-2.88s.98-2.77,2.93-2.77h5.97v-24.16l-4.53,2.72c-.85.5-1.63.62-2.32.37s-1.22-.69-1.57-1.33c-.36-.64-.46-1.34-.32-2.11.14-.76.64-1.4,1.49-1.89l7.36-4.43c.71-.43,1.42-.79,2.13-1.09.71-.3,1.37-.45,1.97-.45.75,0,1.37.21,1.87.61.5.41.75,1.08.75,2v29.76h5.44c1.96,0,2.93.92,2.93,2.77s-.98,2.88-2.93,2.88h-18.24Z"/>
  <path d="M198.66,199.81c-1.53,0-3.11-.24-4.75-.72-1.64-.48-3.17-1.2-4.59-2.16-.68-.46-1.08-1.06-1.2-1.79s-.03-1.42.29-2.08c.32-.66.81-1.1,1.47-1.33.66-.23,1.41-.1,2.27.4,1.21.71,2.35,1.21,3.41,1.49,1.07.29,2.13.43,3.2.43,3.09,0,5.46-1.08,7.09-3.25,1.63-2.17,2.45-5.4,2.45-9.71v-1.55c-.75,1.96-1.96,3.49-3.63,4.59-1.67,1.1-3.59,1.65-5.76,1.65s-4.04-.52-5.73-1.55c-1.69-1.03-3.01-2.46-3.97-4.29s-1.44-3.9-1.44-6.21c0-2.45.52-4.62,1.57-6.51,1.05-1.88,2.51-3.37,4.4-4.45,1.88-1.08,4.04-1.63,6.45-1.63,4.66,0,8.26,1.63,10.8,4.88,2.54,3.25,3.81,7.85,3.81,13.79,0,6.37-1.42,11.29-4.27,14.77-2.85,3.49-6.81,5.23-11.89,5.23ZM200.63,180.34c1.92,0,3.48-.64,4.67-1.92s1.79-2.95,1.79-5.01-.6-3.72-1.79-4.99c-1.19-1.26-2.75-1.89-4.67-1.89s-3.48.63-4.67,1.89c-1.19,1.26-1.79,2.92-1.79,4.99s.59,3.73,1.79,5.01c1.19,1.28,2.75,1.92,4.67,1.92Z"/>
  <path d="M233.91,199.81c-1.89,0-3.81-.25-5.76-.75-1.96-.5-3.75-1.26-5.39-2.29-.85-.53-1.36-1.18-1.52-1.95s-.06-1.47.29-2.13c.36-.66.88-1.1,1.57-1.33.69-.23,1.48-.1,2.37.4,1.31.75,2.65,1.32,4,1.71,1.35.39,2.79.59,4.32.59,2.24,0,3.99-.58,5.25-1.73,1.26-1.16,1.89-2.71,1.89-4.67s-.61-3.6-1.81-4.83c-1.21-1.23-2.86-1.84-4.96-1.84-1.14,0-2.24.19-3.31.56-1.07.37-2.12,1.02-3.15,1.95-.32.29-.73.56-1.23.83s-1.03.4-1.6.4c-1.81,0-2.72-.87-2.72-2.61v-17.44c0-1.99.99-2.99,2.99-2.99h17.55c1.99,0,2.99.94,2.99,2.83s-1,2.83-2.99,2.83h-13.87v10.19c1.88-1.42,4.2-2.13,6.93-2.13,2.38,0,4.45.51,6.21,1.52,1.76,1.01,3.13,2.42,4.11,4.21.98,1.8,1.47,3.88,1.47,6.27s-.55,4.61-1.65,6.48c-1.1,1.87-2.68,3.33-4.72,4.37-2.05,1.05-4.47,1.57-7.28,1.57Z"/>
  <path d="M265.59,199.81c-4.45,0-7.84-1.68-10.19-5.04-2.35-3.36-3.52-8.15-3.52-14.37s1.17-11.08,3.52-14.35,5.74-4.91,10.19-4.91,7.88,1.64,10.21,4.91c2.33,3.27,3.49,8.04,3.49,14.29s-1.17,11.07-3.52,14.43c-2.35,3.36-5.74,5.04-10.19,5.04ZM265.59,194.21c2.42,0,4.2-1.12,5.36-3.36s1.73-5.74,1.73-10.51-.58-8.22-1.73-10.37-2.94-3.23-5.36-3.23-4.16,1.08-5.33,3.23c-1.17,2.15-1.76,5.61-1.76,10.37s.59,8.27,1.76,10.51c1.17,2.24,2.95,3.36,5.33,3.36Z"/>
</svg>