<?xml version="1.0" encoding="UTF-8"?>
<svg id="Layer_1" data-name="Layer 1" xmlns="http://www.w3.org/2000/svg" viewBox="0 0 360 360">
  <path d="M105.53,263.02h131.71c5.8,0,10.51-4.71,10.52-10.52v-111.11c0-5.81-4.71-10.51-10.52-10.52H105.53c-5.8,0-10.51,4.71-10.52,10.52v111.11c0,5.81,4.71,10.51,10.52,10.52ZM237.24,257.04H105.53c-1.21,0-2.35-.48-3.2-1.33-.85-.84-1.33-2-1.33-3.2v-88.17h51.94c.79,0,1.56-.32,2.12-.88l6.84-6.84h79.87v95.89c0,1.21-.47,2.36-1.33,3.2-.85.85-2,1.33-3.2,1.33h0ZM105.53,136.87h131.71c2.5,0,4.53,2.02,4.53,4.52v9.22h-81.11c-.79,0-1.56.32-2.12.88l-6.84,6.84h-50.7v-16.94c0-2.5,2.03-4.52,4.53-4.52h0ZM108.29,147.6h0c0-1.65,1.35-2.99,2.99-2.99h5.22c.8-.02,1.58.28,2.16.85.57.56.9,1.34.9,2.14s-.33,1.58-.9,2.14c-.58.57-1.36.87-2.16.85h-5.22c-1.65,0-2.99-1.34-2.99-2.99h0ZM139.2,147.6h0c0-.8.32-1.56.88-2.12.56-.57,1.33-.88,2.12-.88h5.21c1.63.04,2.93,1.36,2.93,2.99s-1.3,2.95-2.93,2.99h-5.21c-.79,0-1.56-.32-2.12-.88-.56-.56-.88-1.33-.88-2.12h0ZM123.74,147.6h0c0-1.65,1.34-2.99,2.99-2.99h5.22c1.62.04,2.92,1.36,2.92,2.99s-1.3,2.95-2.92,2.99h-5.22c-1.65,0-2.99-1.34-2.99-2.99h0ZM171.39,173.82c-9.09,0-17.8,3.61-24.23,10.04-6.42,6.42-10.04,15.14-10.04,24.23s3.61,17.8,10.04,24.22c6.43,6.43,15.14,10.04,24.23,10.04s17.8-3.61,24.23-10.04c6.42-6.42,10.04-15.14,10.04-24.22-.01-9.09-3.63-17.8-10.05-24.22-6.42-6.42-15.13-10.04-24.22-10.04h0ZM171.39,236.35c-7.5,0-14.69-2.98-19.99-8.28-5.3-5.3-8.28-12.49-8.28-19.99s2.98-14.69,8.28-19.99c5.3-5.3,12.49-8.28,19.99-8.28s14.69,2.98,19.99,8.28c5.3,5.31,8.28,12.49,8.28,20,0,7.5-2.99,14.68-8.29,19.98s-12.49,8.28-19.98,8.29h0ZM189.26,203.33l-21.25-12.27c-1.7-.98-3.79-.98-5.49,0-1.7.98-2.74,2.79-2.75,4.75v24.55c0,1.96,1.04,3.78,2.74,4.76,1.7.98,3.8.98,5.49,0l21.27-12.28c1.69-.98,2.74-2.79,2.74-4.75s-1.05-3.77-2.74-4.75h-.02ZM165.76,219.49v-22.81l19.75,11.41-19.75,11.41Z"/>
</svg>