<?xml version="1.0" encoding="UTF-8"?>
<svg id="Layer_1" data-name="Layer 1" xmlns="http://www.w3.org/2000/svg" viewBox="0 0 360 360">
  <path d="M267.08,131.37c-.99-.96-2.34-1.46-3.72-1.36-.09,0-.2.05-.28,0-.11-.06-.12-.21-.18-.32h0c-.39-.67-.93-1.25-1.58-1.67-.69-.45-1.4-.85-2.12-1.25h0c-1.8-1.1-4.11-.77-5.53.79-.91.15-1.84.09-2.73-.18-1.13-.42-2.36-.48-3.53-.18-2.71.71-5.13,2.25-6.92,4.39-1.16.6-2.08,1.57-2.63,2.76-1.32,2.17-2.47,2.58-3.43,2.7-.59.07-1.18.2-1.74.39-1.33.39-2.4,1.4-2.87,2.71-.48,1.31-.3,2.76.46,3.93.13.22.27.42.41.61-1.94.37-3.84.88-5.72,1.49l-.84.25h0c-1.04.38-2.15.46-3.24.25-.64-.16-2.87-.63-2.96-.65,0-.14,0-.31,0-.53h0c.07-1.35-.02-2.7-.26-4.04-.66-2.62-2.62-4.71-5.18-5.55-4.09-.8-8.33.14-11.7,2.59-1.89,1.46-2.89,3.79-2.63,6.15.17,1.56,1.27,2.87,3.05,4.88.29.33.69.77.97,1.11-.05.02-.12.05-.19.07h0c-1.97-1.15-4.38-1.29-6.47-.36-.4-.18-.78-.4-1.14-.67-2.85-3.18-7.06-4.81-11.31-4.38-.89.04-1.78-.12-2.61-.43-1.57-.55-7.7-2.4-8.09-2.69-1.34-1.2-2.04-2.97-1.88-4.76.09-.24.19-.46.33-.69.53-.91.88-1.93.99-2.98.37-4.38-1.42-7.65-4.78-8.74-.43-.14-.87-.22-1.29-.36-1.29-.26-2.49-.8-3.56-1.56-.58-1.35-.89-2.8-.91-4.27.11-.13.22-.26.33-.39.28-.34.55-.67.81-1.02h0c2.01-2.32,1.87-5.79-.3-7.94-.33-.3-.53-.72-.53-1.16,0-.45.16-.88.47-1.19.31-.4.64-.8.96-1.19.57-.68,1.15-1.39,1.7-2.18,1.76-2.51,3-5.39.3-9.42-1.01-1.5-2.9-4.34-6.58-4.23h0c-2.25.02-4.48.57-6.47,1.63-.76.42-2.28,1.41-2.32,1.43l-.43-.43c-2.37-2.4-4.74-4.79-7.17-7.23-.62-.7-1.4-1.23-2.28-1.56-2.4-.86-4.99-1.04-7.49-.53-1,.22-2,.45-3,.68l-1.38.32h0c-3.42.68-6.44,2.67-8.42,5.55-.97,1.37-1.18,3.14-.57,4.7.6,1.48,1.92,2.55,3.49,2.83.68.06,1.33.34,1.85.79.5.52.5,1.33,0,1.85-.81,1.01-1.33,2.23-1.49,3.52-.16,2.14.6,4.24,2.08,5.8.18.2.35.42.52.64h0c-.24.62-.37,1.29-.38,1.96,0,3.06,2.58,6.24,4.41,7.52h0c.29.29.47.69.48,1.11.1.92-.17,1.85-.75,2.57-.46.48-.92.98-1.37,1.49l-.51.57h0c-1.48,1.39-2.52,3.19-3.02,5.17-.41,1.8-1.37,3.44-2.74,4.69-2.41,2.47-4.67,5-7.15,7.81-1.17-.36-2.29-.65-3.18-.87h0c-2.25-.62-4.64.16-6.09,1.98-.93,1.05-1.73,2.2-2.4,3.43-1.5,2.69-1.4,5.98.25,8.57.48.79.84,1.63,1.08,2.52.46,1.8,1.29,3.5,2.47,4.95-.13.98-.46,1.94-.96,2.8-.22.04-.45.05-.67.04-.46-.09-.91-.21-1.35-.39l-.53-.19c-1.74-.67-3.69-.54-5.34.34-1,.56-2.3,1.31-3.58,2.18h0c-1.18.75-2.01,1.97-2.28,3.35-.24,1.43.12,2.9,1,4.05.91,1.29,1.92,2.65,3.11,4.17h0c.34.43.75.8,1.21,1.09-.61.6-1.05,1.36-1.23,2.21-.27,1.35.08,2.75.94,3.82.94,1.22,1.99,2.35,3.11,3.39.85.82,4.23,3.8,4.42,3.98h0c.54.56,1.13,1.06,1.76,1.52,2.8,1.95,7.16,1.58,10.04.2,1.54-.74,2.19-2.59,1.46-4.13-.74-1.54-2.59-2.2-4.13-1.46-1.14.76-2.59.88-3.83.31-.29-.22-6.53-5.96-6.99-6.45h0c.58-.82.9-1.8.9-2.81.13-2.17-.87-4.25-2.63-5.5l-.25-.15s-.05-.03-.08-.05c-.82-1.05-1.55-2.03-2.23-2.97.81-.52,1.6-.98,2.18-1.32,0,0,.91.26.91.26.91.36,1.87.6,2.85.71,1.25.09,2.5-.06,3.69-.46,2.93-.94,4.21-5.67,4.34-6.21.86-3.37-.11-5.27-1.07-6.28-.65-.81-1.11-1.77-1.32-2.8-.4-1.44-1.01-2.81-1.8-4.08-.47-.76-.44-1.72.07-2.45.44-.77.97-1.5,1.56-2.16.93.23,2.11.55,3.27.91h0c2.1.7,4.41,0,5.76-1.77,2.5-2.83,4.76-5.37,7.13-7.8,2.19-2.11,3.72-4.82,4.38-7.8.33-.88.88-1.67,1.6-2.28l.46-.5c.4-.45.81-.9,1.22-1.32h0c1.84-2.04,2.74-4.76,2.46-7.49-.15-2.23-1.3-4.28-3.11-5.6-.75-.6-1.34-1.36-1.72-2.25,1.03-1.39,1.02-3.29-.02-4.68-.49-.68-1.05-1.45-1.69-2.18-.21-.22-.38-.46-.52-.72-.17-.38.08-.6.29-.9.3-.4.57-.82.82-1.26,1.26-2.66.88-5.8-1-8.06-.86-1.06-1.98-1.87-3.25-2.37.99-.81,2.16-1.36,3.42-1.62,0,0,3.35-.77,4.34-.98,1.05-.23,3.21-.43,4.1.46,2.37,2.39,4.74,4.77,7.1,7.16l1.25,1.27h0c1.47,1.7,3.98,2.01,5.82.73.42-.26.83-.53,1.25-.8.59-.39,1.18-.77,1.8-1.11h0c1.12-.59,2.37-.89,3.64-.88.31.02.81.77,1.3,1.49q.71,1.06-.23,2.41c-.43.62-.92,1.21-1.4,1.79-.36.44-.73.89-1.08,1.35h0c-2.44,3-2.32,7.34.29,10.2.03.03.05.06.08.09l-.05.08c-.21.28-.43.54-.64.81-.29.35-.57.7-.84,1.07-1.81,2.45-.5,9.95,2.12,12.17h0c1.78,1.42,3.87,2.41,6.09,2.9.55.14,1.12.15,1.32.75.3.81.23,1.7-.17,2.46-.44.77-.75,1.6-.93,2.46-.39,2.2-.04,4.47,1.02,6.44l.21.39h0c.7,1.57,1.77,2.95,3.09,4.04,1.14.77,2.4,1.33,3.74,1.65,0,0,4.46,1.36,5.96,1.89h0c1.63.6,3.35.87,5.09.77,2.37-.29,4.73.6,6.32,2.39.69.71,1.46,1.34,2.32,1.87,1.48,1.29,3.6,1.49,5.31.53.29-.16.59-.28.91-.34.31,0,.6.12.84.31,1.34.78,2.96.95,4.43.46,1.99-.46,3.68-1.77,4.6-3.59.65-1.47.64-3.14-.05-4.6-.62-1.13-1.4-2.17-2.32-3.08-.44-.5-1.12-1.26-1.48-1.75.09-.13.19-.25.31-.35,1.77-1.15,3.86-1.67,5.96-1.49.4.17.74.46.95.83.15.86.19,1.73.14,2.61-.12,3.43.7,5.92,5.17,6.88.82.17,1.64.33,2.46.53h0c2.15.48,4.39.38,6.48-.3l.91-.27c1.6-.52,3.21-.95,4.85-1.3,2.6-.36,4.78-2.16,5.62-4.65.5-1.09.46-2.35-.09-3.42,2.56-.95,4.69-2.8,6-5.18.07-.12.14-.24.21-.36h0c.76-.33,1.39-.89,1.84-1.59.94-1.17,2.23-2.01,3.67-2.39.04,0,.09.02.15.05,1.85.6,5.59,1.12,8.11-.55.24-.15.53.08.62.29.16.34.26.7.44,1.04l.32.62h0c.57,1.06,1.7,1.7,2.9,1.63l.57-.03c-.08,1.12-.15,2.23-.24,3.37-1.7.29-3.29,1.07-4.57,2.24-2.18,1.58-3.53,4.05-3.69,6.74l-.06.71h0c.03,1.3-.27,2.58-.88,3.72-.24.33-.46.67-.67,1.03-.85,1.33-.9,3.04-.12,4.41-.21,1.35-.54,2.67-.98,3.97-.08.36-.43.6-.79.53-2.57.03-4.07,2.87-4.61,4.92-1.52.61-2.62,1.94-2.94,3.55-.15,1.32-.29,2.64-.4,3.97-.03.86-.15,1.71-.33,2.56-.12.19-.36.27-.55.17-.67-.72-1.08-1.64-1.15-2.62-.41-1.9-1.85-3.4-3.73-3.89-1.25-.49-2.57-.73-3.9-.7-.71-2.9-2.41-5.45-4.79-7.23-2.49-1.91-5.58-2.81-8.7-2.56-5.74.92-9.19,3.9-9.25,7.95,0,1.5.16,3,.45,4.47.26,1.43.63,2.83,1.09,4.21.52,1.41.67,2.92.45,4.4-.13.02-.24.02-.31.03-2.92.29-10.08,4.1-10.11,9.82,0,.42.05.83.12,1.23-1.67,1.22-12.43,10.04-13,11.01-1.22,1.6-2.76,2.9-4.55,3.83-2.62,1.67-5.58,3.56-7.23,6.98-.49,1.08-.81,2.22-.94,3.39-.06.41-.02.85-.1,1.26-.16.76-.86.77-1.49.81-2.37-.13-4.62,1.12-5.75,3.21-1.38,1.91-2.59,3.92-3.62,6.03-.5,2.56-.33,5.2.5,7.68.11.42.21.84.31,1.27h0c.4,1.73.08,3.55-.91,5.03-.69,1.15-1.36,2.39-2.01,3.72-.37.83-.59,1.71-.65,2.62-.05.51-.08,1.02-.1,1.53-.02.53-.05,1.05-.12,1.58h0c-.25,1.58-.15,3.21.29,4.76-1.29,1.01-2.28,2.34-2.9,3.85-.53,1.7-.66,3.49-.37,5.24.04.39.11,1.62.11,1.8h0c-1.98-.81-4.22-.73-6.15.2-1.78,1.15-2.96,3.04-3.21,5.13-.12.57-.46,1.26-1.19.92h0c-1.74-.6-3.21-1.81-4.12-3.42-.61-1.18-.88-2.52-.77-3.86.33-2.78-.25-5.59-1.65-8.02-.36-.7-.67-1.43-.93-2.17l-.21-.57h0c-.88-2.15-2.06-4.17-3.5-5.99-1.12-1.38-1.94-2.98-2.4-4.69-.24-.79-.78-1.45-1.51-1.83-.73-.39-1.58-.46-2.36-.22-.79.25-1.44.79-1.83,1.52-.38.73-.46,1.58-.22,2.36.67,2.38,1.8,4.6,3.33,6.54,1.1,1.37,2.01,2.88,2.69,4.5l.19.53h0c.37,1.08.83,2.12,1.38,3.12.75,1.31,1.05,2.83.84,4.31-.22,2.49.26,4.98,1.37,7.2,1.54,2.87,4.06,5.11,7.09,6.31,1.91.89,4.1.89,6-.02,2.02-1.08,3.43-3.02,3.83-5.27.07-.33.16-.66.29-.97.43.05.86.15,1.27.31,1.67.67,3.55.57,5.16-.26,2.99-1.68,2.83-5.29,2.76-6.64-.02-.47-.07-.97-.12-1.46h0c-.14-.81-.14-1.65,0-2.46.28-.55.68-1.02,1.18-1.37,1.94-1.5,2.69-4.08,1.85-6.39-.19-.7-.22-1.45-.09-2.17.1-.7.32-3.88.31-3.88.56-1.15,1.14-2.23,1.73-3.21h0c1.81-2.85,2.41-6.32,1.63-9.62-.11-.47-.22-.94-.34-1.39-.53-1.48-.7-3.06-.5-4.61.15-.38,2.56-3.7,3.05-4.57.16-.02.39-.02.57-.03,1.89.07,3.72-.64,5.06-1.95,1.39-1.46,2.24-3.37,2.4-5.38.05-.57.19-1.12.39-1.64.88-1.82,2.77-3.03,4.96-4.43h0c2.62-1.4,4.86-3.42,6.54-5.87.09-.12,9.81-8.07,11.48-9.29h0c1.64-1.05,2.59-2.91,2.48-4.86-.02-.35-.19-1.22-.19-1.24,0-1.19,3.21-3.46,4.55-3.69,1.96-.2,4.65-.47,5.54-3.93.71-2.87.57-5.88-.43-8.66-.37-1.07-.66-2.17-.86-3.28-.37-1.13-.42-2.34-.13-3.49.6-1.36,2.56-1.53,3.84-1.74,3.5.11,6.37,2.81,6.69,6.3.08,1.7,1.12,3.21,2.67,3.89,1.2.47,2.56.36,3.65-.33.19-.11.42-.14.64-.09.16.04.48.21.53.39h0c.41,1.96,1.4,3.75,2.84,5.14,2.27,2.05,5.65,2.3,8.19.6,2.05-1.53,3.21-3.98,3.07-6.53,0,0,.22-2.46.31-3.36,1.55-.62,2.64-2.03,2.86-3.68.05-.19.12-.39.2-.57,2.32-.48,4.24-2.14,5.03-4.38.58-1.64,1.01-3.33,1.29-5.05l.09-.48c.15-.88.05-1.77-.27-2.6,1.24-2.01,1.91-4.32,1.92-6.68l.05-.66c0-1.05.57-2.02,1.49-2.55,1.1-.92,1.46-.87,1.64-.84,1.22.33,2.52.07,3.5-.7.99-.77,1.55-1.97,1.51-3.24.17-2.21.33-4.42.48-6.63.17-1.4-.27-2.81-1.22-3.86h0Z"/>
  <path d="M130.46,236.52v-38.5c7.13-3.56,14.52-1.27,22.32,1.15,5.07,1.57,10.52,3.26,16.14,3.26,4.5.04,8.92-1.2,12.74-3.59.91-.57,1.46-1.56,1.46-2.63v-33.99c-.02-1.12-.64-2.13-1.61-2.67-.97-.54-2.16-.53-3.12.04-7.58,4.69-15.45,2.25-23.78-.33-8.86-2.74-18.9-5.85-28.88.33-1.93,1.19-1.46,3.76-1.46,5.68v71.26c0,1.71,1.39,3.1,3.1,3.1s3.1-1.39,3.1-3.1h0ZM130.46,164.02c7.13-3.56,14.52-1.27,22.32,1.15,7.46,2.31,15.75,4.88,24.15,1.94v27.28c-7.13,3.56-14.52,1.27-22.32-1.15-5.07-1.57-10.52-3.26-16.14-3.26-2.73-.02-5.43.43-8.01,1.32v-27.28Z"/>
</svg>